<mxfile host="app.diagrams.net" agent="Mozilla/5.0 (Windows NT 10.0; Win64; x64) AppleWebKit/537.36 (KHTML, like Gecko) Chrome/126.0.0.0 Safari/537.36 Edg/126.0.0.0" version="24.7.4" pages="6">
  <diagram id="C5RBs43oDa-KdzZeNtuy" name="Overview">
    <mxGraphModel dx="2261" dy="1996" grid="1" gridSize="10" guides="1" tooltips="1" connect="1" arrows="1" fold="1" page="1" pageScale="1" pageWidth="827" pageHeight="1169" math="0" shadow="0">
      <root>
        <mxCell id="WIyWlLk6GJQsqaUBKTNV-0" />
        <mxCell id="WIyWlLk6GJQsqaUBKTNV-1" parent="WIyWlLk6GJQsqaUBKTNV-0" />
        <mxCell id="QpfmmC1W76dxefHkC_hs-102" style="edgeStyle=orthogonalEdgeStyle;rounded=0;orthogonalLoop=1;jettySize=auto;html=1;exitX=0;exitY=0.5;exitDx=0;exitDy=0;fillColor=#dae8fc;strokeColor=#6c8ebf;" parent="WIyWlLk6GJQsqaUBKTNV-1" source="QpfmmC1W76dxefHkC_hs-0" target="QpfmmC1W76dxefHkC_hs-98" edge="1">
          <mxGeometry relative="1" as="geometry" />
        </mxCell>
        <mxCell id="QpfmmC1W76dxefHkC_hs-0" value="Character JS class" style="swimlane;whiteSpace=wrap;html=1;fillColor=#dae8fc;strokeColor=#6c8ebf;" parent="WIyWlLk6GJQsqaUBKTNV-1" vertex="1">
          <mxGeometry x="-310" y="-400" width="380" height="430" as="geometry" />
        </mxCell>
        <mxCell id="QpfmmC1W76dxefHkC_hs-88" value="Pull data from backend" style="shape=process;whiteSpace=wrap;html=1;backgroundOutline=1;" parent="QpfmmC1W76dxefHkC_hs-0" vertex="1">
          <mxGeometry x="190" y="200" width="120" height="60" as="geometry" />
        </mxCell>
        <mxCell id="QpfmmC1W76dxefHkC_hs-165" style="edgeStyle=orthogonalEdgeStyle;rounded=0;orthogonalLoop=1;jettySize=auto;html=1;exitX=0;exitY=0.5;exitDx=0;exitDy=0;entryX=0;entryY=0.5;entryDx=0;entryDy=0;" parent="QpfmmC1W76dxefHkC_hs-0" source="QpfmmC1W76dxefHkC_hs-90" target="QpfmmC1W76dxefHkC_hs-156" edge="1">
          <mxGeometry relative="1" as="geometry" />
        </mxCell>
        <mxCell id="QpfmmC1W76dxefHkC_hs-90" value="Properties of character in JSON format" style="rounded=0;whiteSpace=wrap;html=1;" parent="QpfmmC1W76dxefHkC_hs-0" vertex="1">
          <mxGeometry x="45" y="40" width="290" height="60" as="geometry" />
        </mxCell>
        <mxCell id="QpfmmC1W76dxefHkC_hs-164" style="edgeStyle=orthogonalEdgeStyle;rounded=0;orthogonalLoop=1;jettySize=auto;html=1;exitX=0.5;exitY=0;exitDx=0;exitDy=0;entryX=0.75;entryY=1;entryDx=0;entryDy=0;" parent="QpfmmC1W76dxefHkC_hs-0" source="QpfmmC1W76dxefHkC_hs-91" target="QpfmmC1W76dxefHkC_hs-90" edge="1">
          <mxGeometry relative="1" as="geometry" />
        </mxCell>
        <mxCell id="QpfmmC1W76dxefHkC_hs-91" value="Write data to backend" style="shape=process;whiteSpace=wrap;html=1;backgroundOutline=1;" parent="QpfmmC1W76dxefHkC_hs-0" vertex="1">
          <mxGeometry x="190" y="125" width="120" height="60" as="geometry" />
        </mxCell>
        <mxCell id="QpfmmC1W76dxefHkC_hs-94" value="Manage modals" style="shape=process;whiteSpace=wrap;html=1;backgroundOutline=1;" parent="QpfmmC1W76dxefHkC_hs-0" vertex="1">
          <mxGeometry x="45" y="275" width="120" height="60" as="geometry" />
        </mxCell>
        <mxCell id="QpfmmC1W76dxefHkC_hs-163" style="edgeStyle=orthogonalEdgeStyle;rounded=0;orthogonalLoop=1;jettySize=auto;html=1;exitX=0.5;exitY=0;exitDx=0;exitDy=0;entryX=0.25;entryY=1;entryDx=0;entryDy=0;" parent="QpfmmC1W76dxefHkC_hs-0" source="QpfmmC1W76dxefHkC_hs-115" target="QpfmmC1W76dxefHkC_hs-90" edge="1">
          <mxGeometry relative="1" as="geometry" />
        </mxCell>
        <mxCell id="QpfmmC1W76dxefHkC_hs-115" value="Write data to front end" style="shape=process;whiteSpace=wrap;html=1;backgroundOutline=1;" parent="QpfmmC1W76dxefHkC_hs-0" vertex="1">
          <mxGeometry x="45" y="125" width="120" height="60" as="geometry" />
        </mxCell>
        <mxCell id="QpfmmC1W76dxefHkC_hs-117" value="Alter properties" style="shape=process;whiteSpace=wrap;html=1;backgroundOutline=1;" parent="QpfmmC1W76dxefHkC_hs-0" vertex="1">
          <mxGeometry x="45" y="350" width="120" height="60" as="geometry" />
        </mxCell>
        <mxCell id="QpfmmC1W76dxefHkC_hs-118" value="Close self and open list" style="shape=process;whiteSpace=wrap;html=1;backgroundOutline=1;" parent="QpfmmC1W76dxefHkC_hs-0" vertex="1">
          <mxGeometry x="190" y="276" width="120" height="60" as="geometry" />
        </mxCell>
        <mxCell id="QpfmmC1W76dxefHkC_hs-156" value="Pull data from front end" style="shape=process;whiteSpace=wrap;html=1;backgroundOutline=1;" parent="QpfmmC1W76dxefHkC_hs-0" vertex="1">
          <mxGeometry x="45" y="200" width="120" height="60" as="geometry" />
        </mxCell>
        <mxCell id="EXZawt5WP3sgXpvTL2IV-0" value="Localized strings" style="rounded=0;whiteSpace=wrap;html=1;" vertex="1" parent="QpfmmC1W76dxefHkC_hs-0">
          <mxGeometry x="190" y="350" width="120" height="60" as="geometry" />
        </mxCell>
        <mxCell id="QpfmmC1W76dxefHkC_hs-1" value="PHP backend" style="swimlane;whiteSpace=wrap;html=1;fillColor=#e1d5e7;strokeColor=#9673a6;" parent="WIyWlLk6GJQsqaUBKTNV-1" vertex="1">
          <mxGeometry x="560" y="-150" width="200" height="390" as="geometry" />
        </mxCell>
        <mxCell id="QpfmmC1W76dxefHkC_hs-33" value="read db" style="shape=process;whiteSpace=wrap;html=1;backgroundOutline=1;" parent="QpfmmC1W76dxefHkC_hs-1" vertex="1">
          <mxGeometry x="40" y="120" width="120" height="60" as="geometry" />
        </mxCell>
        <mxCell id="QpfmmC1W76dxefHkC_hs-34" value="write to db" style="shape=process;whiteSpace=wrap;html=1;backgroundOutline=1;" parent="QpfmmC1W76dxefHkC_hs-1" vertex="1">
          <mxGeometry x="40" y="200" width="120" height="60" as="geometry" />
        </mxCell>
        <mxCell id="QpfmmC1W76dxefHkC_hs-39" value="localize JS strings" style="shape=process;whiteSpace=wrap;html=1;backgroundOutline=1;" parent="QpfmmC1W76dxefHkC_hs-1" vertex="1">
          <mxGeometry x="40" y="290" width="120" height="60" as="geometry" />
        </mxCell>
        <mxCell id="QpfmmC1W76dxefHkC_hs-131" value="open db connection" style="shape=process;whiteSpace=wrap;html=1;backgroundOutline=1;" parent="QpfmmC1W76dxefHkC_hs-1" vertex="1">
          <mxGeometry x="40" y="40" width="120" height="60" as="geometry" />
        </mxCell>
        <mxCell id="QpfmmC1W76dxefHkC_hs-2" value="MySQL database" style="swimlane;whiteSpace=wrap;html=1;" parent="WIyWlLk6GJQsqaUBKTNV-1" vertex="1">
          <mxGeometry x="860" y="350" width="620" height="610" as="geometry" />
        </mxCell>
        <mxCell id="QpfmmC1W76dxefHkC_hs-35" value="characters" style="swimlane;fontStyle=0;childLayout=stackLayout;horizontal=1;startSize=30;horizontalStack=0;resizeParent=1;resizeParentMax=0;resizeLast=0;collapsible=1;marginBottom=0;whiteSpace=wrap;html=1;fillColor=#dae8fc;strokeColor=#6c8ebf;" parent="QpfmmC1W76dxefHkC_hs-2" vertex="1">
          <mxGeometry x="20" y="50" width="150" height="390" as="geometry" />
        </mxCell>
        <mxCell id="QpfmmC1W76dxefHkC_hs-36" value="&lt;b&gt;id (integer)&lt;/b&gt;" style="text;strokeColor=none;fillColor=none;align=left;verticalAlign=middle;spacingLeft=4;spacingRight=4;overflow=hidden;points=[[0,0.5],[1,0.5]];portConstraint=eastwest;rotatable=0;whiteSpace=wrap;html=1;" parent="QpfmmC1W76dxefHkC_hs-35" vertex="1">
          <mxGeometry y="30" width="150" height="30" as="geometry" />
        </mxCell>
        <mxCell id="QpfmmC1W76dxefHkC_hs-37" value="first_name (varchar)" style="text;strokeColor=none;fillColor=none;align=left;verticalAlign=middle;spacingLeft=4;spacingRight=4;overflow=hidden;points=[[0,0.5],[1,0.5]];portConstraint=eastwest;rotatable=0;whiteSpace=wrap;html=1;" parent="QpfmmC1W76dxefHkC_hs-35" vertex="1">
          <mxGeometry y="60" width="150" height="30" as="geometry" />
        </mxCell>
        <mxCell id="QpfmmC1W76dxefHkC_hs-38" value="last_name (varchar)" style="text;strokeColor=none;fillColor=none;align=left;verticalAlign=middle;spacingLeft=4;spacingRight=4;overflow=hidden;points=[[0,0.5],[1,0.5]];portConstraint=eastwest;rotatable=0;whiteSpace=wrap;html=1;" parent="QpfmmC1W76dxefHkC_hs-35" vertex="1">
          <mxGeometry y="90" width="150" height="30" as="geometry" />
        </mxCell>
        <mxCell id="QpfmmC1W76dxefHkC_hs-41" value="age (integer)" style="text;strokeColor=none;fillColor=none;align=left;verticalAlign=middle;spacingLeft=4;spacingRight=4;overflow=hidden;points=[[0,0.5],[1,0.5]];portConstraint=eastwest;rotatable=0;whiteSpace=wrap;html=1;" parent="QpfmmC1W76dxefHkC_hs-35" vertex="1">
          <mxGeometry y="120" width="150" height="30" as="geometry" />
        </mxCell>
        <mxCell id="QpfmmC1W76dxefHkC_hs-43" value="physical (text)" style="text;strokeColor=none;fillColor=none;align=left;verticalAlign=middle;spacingLeft=4;spacingRight=4;overflow=hidden;points=[[0,0.5],[1,0.5]];portConstraint=eastwest;rotatable=0;whiteSpace=wrap;html=1;" parent="QpfmmC1W76dxefHkC_hs-35" vertex="1">
          <mxGeometry y="150" width="150" height="30" as="geometry" />
        </mxCell>
        <mxCell id="QpfmmC1W76dxefHkC_hs-44" value="personality (text)" style="text;strokeColor=none;fillColor=none;align=left;verticalAlign=middle;spacingLeft=4;spacingRight=4;overflow=hidden;points=[[0,0.5],[1,0.5]];portConstraint=eastwest;rotatable=0;whiteSpace=wrap;html=1;" parent="QpfmmC1W76dxefHkC_hs-35" vertex="1">
          <mxGeometry y="180" width="150" height="30" as="geometry" />
        </mxCell>
        <mxCell id="QpfmmC1W76dxefHkC_hs-42" value="image_head (blob)" style="text;strokeColor=none;fillColor=none;align=left;verticalAlign=middle;spacingLeft=4;spacingRight=4;overflow=hidden;points=[[0,0.5],[1,0.5]];portConstraint=eastwest;rotatable=0;whiteSpace=wrap;html=1;" parent="QpfmmC1W76dxefHkC_hs-35" vertex="1">
          <mxGeometry y="210" width="150" height="30" as="geometry" />
        </mxCell>
        <mxCell id="QpfmmC1W76dxefHkC_hs-45" value="image_body (blob)" style="text;strokeColor=none;fillColor=none;align=left;verticalAlign=middle;spacingLeft=4;spacingRight=4;overflow=hidden;points=[[0,0.5],[1,0.5]];portConstraint=eastwest;rotatable=0;whiteSpace=wrap;html=1;" parent="QpfmmC1W76dxefHkC_hs-35" vertex="1">
          <mxGeometry y="240" width="150" height="30" as="geometry" />
        </mxCell>
        <mxCell id="QpfmmC1W76dxefHkC_hs-55" value="animation_status (integer)" style="text;strokeColor=none;fillColor=none;align=left;verticalAlign=middle;spacingLeft=4;spacingRight=4;overflow=hidden;points=[[0,0.5],[1,0.5]];portConstraint=eastwest;rotatable=0;whiteSpace=wrap;html=1;" parent="QpfmmC1W76dxefHkC_hs-35" vertex="1">
          <mxGeometry y="270" width="150" height="30" as="geometry" />
        </mxCell>
        <mxCell id="QpfmmC1W76dxefHkC_hs-46" value="residence (integer)" style="text;strokeColor=none;fillColor=none;align=left;verticalAlign=middle;spacingLeft=4;spacingRight=4;overflow=hidden;points=[[0,0.5],[1,0.5]];portConstraint=eastwest;rotatable=0;whiteSpace=wrap;html=1;" parent="QpfmmC1W76dxefHkC_hs-35" vertex="1">
          <mxGeometry y="300" width="150" height="30" as="geometry" />
        </mxCell>
        <mxCell id="QpfmmC1W76dxefHkC_hs-49" value="marital_status (integer)" style="text;strokeColor=none;fillColor=none;align=left;verticalAlign=middle;spacingLeft=4;spacingRight=4;overflow=hidden;points=[[0,0.5],[1,0.5]];portConstraint=eastwest;rotatable=0;whiteSpace=wrap;html=1;" parent="QpfmmC1W76dxefHkC_hs-35" vertex="1">
          <mxGeometry y="330" width="150" height="30" as="geometry" />
        </mxCell>
        <mxCell id="QpfmmC1W76dxefHkC_hs-47" value="acted_by (integer)" style="text;strokeColor=none;fillColor=none;align=left;verticalAlign=middle;spacingLeft=4;spacingRight=4;overflow=hidden;points=[[0,0.5],[1,0.5]];portConstraint=eastwest;rotatable=0;whiteSpace=wrap;html=1;" parent="QpfmmC1W76dxefHkC_hs-35" vertex="1">
          <mxGeometry y="360" width="150" height="30" as="geometry" />
        </mxCell>
        <mxCell id="QpfmmC1W76dxefHkC_hs-50" value="relationships" style="swimlane;fontStyle=0;childLayout=stackLayout;horizontal=1;startSize=30;horizontalStack=0;resizeParent=1;resizeParentMax=0;resizeLast=0;collapsible=1;marginBottom=0;whiteSpace=wrap;html=1;fillColor=#1ba1e2;fontColor=#ffffff;strokeColor=#006EAF;" parent="QpfmmC1W76dxefHkC_hs-2" vertex="1">
          <mxGeometry x="240" y="40" width="150" height="150" as="geometry" />
        </mxCell>
        <mxCell id="QpfmmC1W76dxefHkC_hs-51" value="&lt;b&gt;id (integer)&lt;/b&gt;" style="text;strokeColor=none;fillColor=none;align=left;verticalAlign=middle;spacingLeft=4;spacingRight=4;overflow=hidden;points=[[0,0.5],[1,0.5]];portConstraint=eastwest;rotatable=0;whiteSpace=wrap;html=1;" parent="QpfmmC1W76dxefHkC_hs-50" vertex="1">
          <mxGeometry y="30" width="150" height="30" as="geometry" />
        </mxCell>
        <mxCell id="QpfmmC1W76dxefHkC_hs-52" value="main_character (integer)" style="text;strokeColor=none;fillColor=none;align=left;verticalAlign=middle;spacingLeft=4;spacingRight=4;overflow=hidden;points=[[0,0.5],[1,0.5]];portConstraint=eastwest;rotatable=0;whiteSpace=wrap;html=1;" parent="QpfmmC1W76dxefHkC_hs-50" vertex="1">
          <mxGeometry y="60" width="150" height="30" as="geometry" />
        </mxCell>
        <mxCell id="QpfmmC1W76dxefHkC_hs-53" value="other_character (integer)" style="text;strokeColor=none;fillColor=none;align=left;verticalAlign=middle;spacingLeft=4;spacingRight=4;overflow=hidden;points=[[0,0.5],[1,0.5]];portConstraint=eastwest;rotatable=0;whiteSpace=wrap;html=1;" parent="QpfmmC1W76dxefHkC_hs-50" vertex="1">
          <mxGeometry y="90" width="150" height="30" as="geometry" />
        </mxCell>
        <mxCell id="QpfmmC1W76dxefHkC_hs-54" value="relationship (varchar)" style="text;strokeColor=none;fillColor=none;align=left;verticalAlign=middle;spacingLeft=4;spacingRight=4;overflow=hidden;points=[[0,0.5],[1,0.5]];portConstraint=eastwest;rotatable=0;whiteSpace=wrap;html=1;" parent="QpfmmC1W76dxefHkC_hs-50" vertex="1">
          <mxGeometry y="120" width="150" height="30" as="geometry" />
        </mxCell>
        <mxCell id="QpfmmC1W76dxefHkC_hs-59" style="edgeStyle=orthogonalEdgeStyle;rounded=0;orthogonalLoop=1;jettySize=auto;html=1;entryX=0;entryY=0.5;entryDx=0;entryDy=0;exitX=1;exitY=0.5;exitDx=0;exitDy=0;curved=1;fillColor=#1ba1e2;strokeColor=#006EAF;" parent="QpfmmC1W76dxefHkC_hs-2" source="QpfmmC1W76dxefHkC_hs-36" target="QpfmmC1W76dxefHkC_hs-52" edge="1">
          <mxGeometry relative="1" as="geometry">
            <mxPoint x="220" y="130" as="sourcePoint" />
          </mxGeometry>
        </mxCell>
        <mxCell id="QpfmmC1W76dxefHkC_hs-62" value="" style="endArrow=classic;html=1;rounded=0;entryX=0;entryY=0.5;entryDx=0;entryDy=0;exitX=1;exitY=0.5;exitDx=0;exitDy=0;edgeStyle=orthogonalEdgeStyle;curved=1;fillColor=#1ba1e2;strokeColor=#006EAF;" parent="QpfmmC1W76dxefHkC_hs-2" source="QpfmmC1W76dxefHkC_hs-36" target="QpfmmC1W76dxefHkC_hs-53" edge="1">
          <mxGeometry width="50" height="50" relative="1" as="geometry">
            <mxPoint x="-270" y="100" as="sourcePoint" />
            <mxPoint x="-220" y="50" as="targetPoint" />
            <Array as="points">
              <mxPoint x="190" y="85" />
              <mxPoint x="190" y="145" />
            </Array>
          </mxGeometry>
        </mxCell>
        <mxCell id="QpfmmC1W76dxefHkC_hs-63" value="residence" style="swimlane;fontStyle=0;childLayout=stackLayout;horizontal=1;startSize=30;horizontalStack=0;resizeParent=1;resizeParentMax=0;resizeLast=0;collapsible=1;marginBottom=0;whiteSpace=wrap;html=1;fillColor=#f8cecc;strokeColor=#b85450;" parent="QpfmmC1W76dxefHkC_hs-2" vertex="1">
          <mxGeometry x="240" y="350" width="140" height="90" as="geometry" />
        </mxCell>
        <mxCell id="QpfmmC1W76dxefHkC_hs-64" value="&lt;b&gt;id (integer)&lt;/b&gt;" style="text;strokeColor=none;fillColor=none;align=left;verticalAlign=middle;spacingLeft=4;spacingRight=4;overflow=hidden;points=[[0,0.5],[1,0.5]];portConstraint=eastwest;rotatable=0;whiteSpace=wrap;html=1;" parent="QpfmmC1W76dxefHkC_hs-63" vertex="1">
          <mxGeometry y="30" width="140" height="30" as="geometry" />
        </mxCell>
        <mxCell id="QpfmmC1W76dxefHkC_hs-65" value="name (varchar)" style="text;strokeColor=none;fillColor=none;align=left;verticalAlign=middle;spacingLeft=4;spacingRight=4;overflow=hidden;points=[[0,0.5],[1,0.5]];portConstraint=eastwest;rotatable=0;whiteSpace=wrap;html=1;" parent="QpfmmC1W76dxefHkC_hs-63" vertex="1">
          <mxGeometry y="60" width="140" height="30" as="geometry" />
        </mxCell>
        <mxCell id="QpfmmC1W76dxefHkC_hs-67" value="episodes" style="swimlane;fontStyle=0;childLayout=stackLayout;horizontal=1;startSize=30;horizontalStack=0;resizeParent=1;resizeParentMax=0;resizeLast=0;collapsible=1;marginBottom=0;whiteSpace=wrap;html=1;fillColor=#d5e8d4;strokeColor=#82b366;" parent="QpfmmC1W76dxefHkC_hs-2" vertex="1">
          <mxGeometry x="440" y="210" width="140" height="90" as="geometry" />
        </mxCell>
        <mxCell id="QpfmmC1W76dxefHkC_hs-68" value="&lt;b&gt;id (integer)&lt;/b&gt;" style="text;strokeColor=none;fillColor=none;align=left;verticalAlign=middle;spacingLeft=4;spacingRight=4;overflow=hidden;points=[[0,0.5],[1,0.5]];portConstraint=eastwest;rotatable=0;whiteSpace=wrap;html=1;" parent="QpfmmC1W76dxefHkC_hs-67" vertex="1">
          <mxGeometry y="30" width="140" height="30" as="geometry" />
        </mxCell>
        <mxCell id="QpfmmC1W76dxefHkC_hs-69" value="name (varchar)" style="text;strokeColor=none;fillColor=none;align=left;verticalAlign=middle;spacingLeft=4;spacingRight=4;overflow=hidden;points=[[0,0.5],[1,0.5]];portConstraint=eastwest;rotatable=0;whiteSpace=wrap;html=1;" parent="QpfmmC1W76dxefHkC_hs-67" vertex="1">
          <mxGeometry y="60" width="140" height="30" as="geometry" />
        </mxCell>
        <mxCell id="QpfmmC1W76dxefHkC_hs-70" value="char_to_ep" style="swimlane;fontStyle=0;childLayout=stackLayout;horizontal=1;startSize=30;horizontalStack=0;resizeParent=1;resizeParentMax=0;resizeLast=0;collapsible=1;marginBottom=0;whiteSpace=wrap;html=1;fillColor=#0050ef;fontColor=#ffffff;strokeColor=#001DBC;" parent="QpfmmC1W76dxefHkC_hs-2" vertex="1">
          <mxGeometry x="245" y="210" width="140" height="120" as="geometry" />
        </mxCell>
        <mxCell id="QpfmmC1W76dxefHkC_hs-71" value="&lt;b&gt;id (integer)&lt;/b&gt;" style="text;strokeColor=none;fillColor=none;align=left;verticalAlign=middle;spacingLeft=4;spacingRight=4;overflow=hidden;points=[[0,0.5],[1,0.5]];portConstraint=eastwest;rotatable=0;whiteSpace=wrap;html=1;" parent="QpfmmC1W76dxefHkC_hs-70" vertex="1">
          <mxGeometry y="30" width="140" height="30" as="geometry" />
        </mxCell>
        <mxCell id="QpfmmC1W76dxefHkC_hs-72" value="character (integer)" style="text;strokeColor=none;fillColor=none;align=left;verticalAlign=middle;spacingLeft=4;spacingRight=4;overflow=hidden;points=[[0,0.5],[1,0.5]];portConstraint=eastwest;rotatable=0;whiteSpace=wrap;html=1;" parent="QpfmmC1W76dxefHkC_hs-70" vertex="1">
          <mxGeometry y="60" width="140" height="30" as="geometry" />
        </mxCell>
        <mxCell id="QpfmmC1W76dxefHkC_hs-73" value="episode (integer)" style="text;strokeColor=none;fillColor=none;align=left;verticalAlign=middle;spacingLeft=4;spacingRight=4;overflow=hidden;points=[[0,0.5],[1,0.5]];portConstraint=eastwest;rotatable=0;whiteSpace=wrap;html=1;" parent="QpfmmC1W76dxefHkC_hs-70" vertex="1">
          <mxGeometry y="90" width="140" height="30" as="geometry" />
        </mxCell>
        <mxCell id="QpfmmC1W76dxefHkC_hs-75" style="edgeStyle=orthogonalEdgeStyle;rounded=0;orthogonalLoop=1;jettySize=auto;html=1;exitX=0;exitY=0.5;exitDx=0;exitDy=0;entryX=1.057;entryY=0.533;entryDx=0;entryDy=0;entryPerimeter=0;curved=1;" parent="QpfmmC1W76dxefHkC_hs-2" source="QpfmmC1W76dxefHkC_hs-68" target="QpfmmC1W76dxefHkC_hs-73" edge="1">
          <mxGeometry relative="1" as="geometry" />
        </mxCell>
        <mxCell id="QpfmmC1W76dxefHkC_hs-76" value="" style="endArrow=classic;html=1;rounded=0;exitX=1;exitY=0.5;exitDx=0;exitDy=0;entryX=0;entryY=0.5;entryDx=0;entryDy=0;edgeStyle=orthogonalEdgeStyle;curved=1;fillColor=#0050ef;strokeColor=#001DBC;" parent="QpfmmC1W76dxefHkC_hs-2" source="QpfmmC1W76dxefHkC_hs-36" target="QpfmmC1W76dxefHkC_hs-71" edge="1">
          <mxGeometry width="50" height="50" relative="1" as="geometry">
            <mxPoint x="560" y="300" as="sourcePoint" />
            <mxPoint x="610" y="250" as="targetPoint" />
          </mxGeometry>
        </mxCell>
        <mxCell id="QpfmmC1W76dxefHkC_hs-77" style="edgeStyle=orthogonalEdgeStyle;rounded=0;orthogonalLoop=1;jettySize=auto;html=1;exitX=1;exitY=0.5;exitDx=0;exitDy=0;entryX=0;entryY=0.5;entryDx=0;entryDy=0;fillColor=#f8cecc;strokeColor=#b85450;curved=1;" parent="QpfmmC1W76dxefHkC_hs-2" source="QpfmmC1W76dxefHkC_hs-46" target="QpfmmC1W76dxefHkC_hs-64" edge="1">
          <mxGeometry relative="1" as="geometry" />
        </mxCell>
        <mxCell id="QpfmmC1W76dxefHkC_hs-78" value="residence" style="swimlane;fontStyle=0;childLayout=stackLayout;horizontal=1;startSize=30;horizontalStack=0;resizeParent=1;resizeParentMax=0;resizeLast=0;collapsible=1;marginBottom=0;whiteSpace=wrap;html=1;fillColor=#ffe6cc;strokeColor=#d79b00;" parent="QpfmmC1W76dxefHkC_hs-2" vertex="1">
          <mxGeometry x="240" y="460" width="140" height="90" as="geometry" />
        </mxCell>
        <mxCell id="QpfmmC1W76dxefHkC_hs-79" value="&lt;b&gt;id (integer)&lt;/b&gt;" style="text;strokeColor=none;fillColor=none;align=left;verticalAlign=middle;spacingLeft=4;spacingRight=4;overflow=hidden;points=[[0,0.5],[1,0.5]];portConstraint=eastwest;rotatable=0;whiteSpace=wrap;html=1;" parent="QpfmmC1W76dxefHkC_hs-78" vertex="1">
          <mxGeometry y="30" width="140" height="30" as="geometry" />
        </mxCell>
        <mxCell id="QpfmmC1W76dxefHkC_hs-80" value="name (varchar)" style="text;strokeColor=none;fillColor=none;align=left;verticalAlign=middle;spacingLeft=4;spacingRight=4;overflow=hidden;points=[[0,0.5],[1,0.5]];portConstraint=eastwest;rotatable=0;whiteSpace=wrap;html=1;" parent="QpfmmC1W76dxefHkC_hs-78" vertex="1">
          <mxGeometry y="60" width="140" height="30" as="geometry" />
        </mxCell>
        <mxCell id="QpfmmC1W76dxefHkC_hs-81" style="edgeStyle=orthogonalEdgeStyle;rounded=0;orthogonalLoop=1;jettySize=auto;html=1;exitX=1;exitY=0.5;exitDx=0;exitDy=0;entryX=-0.021;entryY=0.067;entryDx=0;entryDy=0;entryPerimeter=0;curved=1;fillColor=#ffe6cc;strokeColor=#d79b00;" parent="QpfmmC1W76dxefHkC_hs-2" source="QpfmmC1W76dxefHkC_hs-47" target="QpfmmC1W76dxefHkC_hs-80" edge="1">
          <mxGeometry relative="1" as="geometry" />
        </mxCell>
        <mxCell id="QpfmmC1W76dxefHkC_hs-100" style="edgeStyle=orthogonalEdgeStyle;rounded=0;orthogonalLoop=1;jettySize=auto;html=1;exitX=0.5;exitY=1;exitDx=0;exitDy=0;entryX=0.5;entryY=1;entryDx=0;entryDy=0;fillColor=#dae8fc;strokeColor=#6c8ebf;" parent="WIyWlLk6GJQsqaUBKTNV-1" source="QpfmmC1W76dxefHkC_hs-5" target="QpfmmC1W76dxefHkC_hs-98" edge="1">
          <mxGeometry relative="1" as="geometry">
            <Array as="points">
              <mxPoint x="385" y="790" />
              <mxPoint x="-370" y="790" />
            </Array>
          </mxGeometry>
        </mxCell>
        <mxCell id="QpfmmC1W76dxefHkC_hs-5" value="List JS class" style="swimlane;whiteSpace=wrap;html=1;fillColor=#dae8fc;strokeColor=#6c8ebf;" parent="WIyWlLk6GJQsqaUBKTNV-1" vertex="1">
          <mxGeometry x="300" y="250" width="170" height="500" as="geometry" />
        </mxCell>
        <mxCell id="QpfmmC1W76dxefHkC_hs-82" value="Pull data from backend" style="shape=process;whiteSpace=wrap;html=1;backgroundOutline=1;" parent="QpfmmC1W76dxefHkC_hs-5" vertex="1">
          <mxGeometry x="25" y="37.5" width="120" height="60" as="geometry" />
        </mxCell>
        <mxCell id="QpfmmC1W76dxefHkC_hs-83" value="Write data to list as table rows" style="shape=process;whiteSpace=wrap;html=1;backgroundOutline=1;" parent="QpfmmC1W76dxefHkC_hs-5" vertex="1">
          <mxGeometry x="25" y="117.5" width="120" height="60" as="geometry" />
        </mxCell>
        <mxCell id="QpfmmC1W76dxefHkC_hs-84" value="Show/hide list" style="shape=process;whiteSpace=wrap;html=1;backgroundOutline=1;" parent="QpfmmC1W76dxefHkC_hs-5" vertex="1">
          <mxGeometry x="25" y="192.5" width="120" height="60" as="geometry" />
        </mxCell>
        <mxCell id="QpfmmC1W76dxefHkC_hs-86" value="Close self and open character" style="shape=process;whiteSpace=wrap;html=1;backgroundOutline=1;" parent="QpfmmC1W76dxefHkC_hs-5" vertex="1">
          <mxGeometry x="25" y="270" width="120" height="60" as="geometry" />
        </mxCell>
        <mxCell id="QpfmmC1W76dxefHkC_hs-116" value="Enable scrolling" style="shape=process;whiteSpace=wrap;html=1;backgroundOutline=1;" parent="QpfmmC1W76dxefHkC_hs-5" vertex="1">
          <mxGeometry x="25" y="350" width="120" height="60" as="geometry" />
        </mxCell>
        <mxCell id="EXZawt5WP3sgXpvTL2IV-1" value="Localized strings" style="rounded=0;whiteSpace=wrap;html=1;" vertex="1" parent="QpfmmC1W76dxefHkC_hs-5">
          <mxGeometry x="25" y="430" width="120" height="60" as="geometry" />
        </mxCell>
        <mxCell id="QpfmmC1W76dxefHkC_hs-6" value="PHP/HTML frontend" style="swimlane;whiteSpace=wrap;html=1;fillColor=#f5f5f5;fontColor=#333333;strokeColor=#666666;" parent="WIyWlLk6GJQsqaUBKTNV-1" vertex="1">
          <mxGeometry x="-220" y="190" width="490" height="560" as="geometry" />
        </mxCell>
        <mxCell id="BJpE14f_ovSwA0AjCKdM-2" style="edgeStyle=orthogonalEdgeStyle;rounded=0;orthogonalLoop=1;jettySize=auto;html=1;exitX=0.25;exitY=1;exitDx=0;exitDy=0;entryX=1;entryY=0.75;entryDx=0;entryDy=0;" parent="QpfmmC1W76dxefHkC_hs-6" source="QpfmmC1W76dxefHkC_hs-15" target="BJpE14f_ovSwA0AjCKdM-0" edge="1">
          <mxGeometry relative="1" as="geometry" />
        </mxCell>
        <mxCell id="QpfmmC1W76dxefHkC_hs-15" value="List display" style="rounded=1;whiteSpace=wrap;html=1;" parent="QpfmmC1W76dxefHkC_hs-6" vertex="1">
          <mxGeometry x="340" y="310" width="120" height="60" as="geometry" />
        </mxCell>
        <mxCell id="BJpE14f_ovSwA0AjCKdM-1" style="edgeStyle=orthogonalEdgeStyle;rounded=0;orthogonalLoop=1;jettySize=auto;html=1;exitX=0.5;exitY=1;exitDx=0;exitDy=0;entryX=1;entryY=0.367;entryDx=0;entryDy=0;entryPerimeter=0;" parent="QpfmmC1W76dxefHkC_hs-6" source="QpfmmC1W76dxefHkC_hs-16" target="BJpE14f_ovSwA0AjCKdM-0" edge="1">
          <mxGeometry relative="1" as="geometry">
            <mxPoint x="200" y="510" as="targetPoint" />
          </mxGeometry>
        </mxCell>
        <mxCell id="QpfmmC1W76dxefHkC_hs-16" value="individual character display / edit" style="rounded=1;whiteSpace=wrap;html=1;" parent="QpfmmC1W76dxefHkC_hs-6" vertex="1">
          <mxGeometry x="230" y="160" width="120" height="60" as="geometry" />
        </mxCell>
        <mxCell id="QpfmmC1W76dxefHkC_hs-17" value="City modal" style="rounded=1;whiteSpace=wrap;html=1;" parent="QpfmmC1W76dxefHkC_hs-6" vertex="1">
          <mxGeometry x="10" y="230" width="120" height="60" as="geometry" />
        </mxCell>
        <mxCell id="QpfmmC1W76dxefHkC_hs-18" value="Image modal" style="rounded=1;whiteSpace=wrap;html=1;" parent="QpfmmC1W76dxefHkC_hs-6" vertex="1">
          <mxGeometry x="10" y="150" width="120" height="60" as="geometry" />
        </mxCell>
        <mxCell id="QpfmmC1W76dxefHkC_hs-20" value="Episode modal" style="rounded=1;whiteSpace=wrap;html=1;" parent="QpfmmC1W76dxefHkC_hs-6" vertex="1">
          <mxGeometry x="10" y="310" width="120" height="60" as="geometry" />
        </mxCell>
        <mxCell id="QpfmmC1W76dxefHkC_hs-30" value="Relationship m&lt;span style=&quot;background-color: initial;&quot;&gt;odal&lt;/span&gt;" style="rounded=1;whiteSpace=wrap;html=1;" parent="QpfmmC1W76dxefHkC_hs-6" vertex="1">
          <mxGeometry x="10" y="394.5" width="120" height="60" as="geometry" />
        </mxCell>
        <mxCell id="QpfmmC1W76dxefHkC_hs-92" value="" style="endArrow=classic;startArrow=classic;html=1;rounded=0;entryX=0.75;entryY=1;entryDx=0;entryDy=0;exitX=0.5;exitY=0;exitDx=0;exitDy=0;edgeStyle=orthogonalEdgeStyle;" parent="QpfmmC1W76dxefHkC_hs-6" source="QpfmmC1W76dxefHkC_hs-15" target="QpfmmC1W76dxefHkC_hs-16" edge="1">
          <mxGeometry width="50" height="50" relative="1" as="geometry">
            <mxPoint x="470" y="110" as="sourcePoint" />
            <mxPoint x="520" y="60" as="targetPoint" />
          </mxGeometry>
        </mxCell>
        <mxCell id="QpfmmC1W76dxefHkC_hs-95" value="Flash message" style="rounded=1;whiteSpace=wrap;html=1;" parent="QpfmmC1W76dxefHkC_hs-6" vertex="1">
          <mxGeometry x="10" y="60" width="120" height="60" as="geometry" />
        </mxCell>
        <mxCell id="QpfmmC1W76dxefHkC_hs-108" value="" style="endArrow=classic;startArrow=classic;html=1;rounded=0;exitX=1;exitY=0.5;exitDx=0;exitDy=0;entryX=0;entryY=0.25;entryDx=0;entryDy=0;edgeStyle=orthogonalEdgeStyle;" parent="QpfmmC1W76dxefHkC_hs-6" source="QpfmmC1W76dxefHkC_hs-18" target="QpfmmC1W76dxefHkC_hs-16" edge="1">
          <mxGeometry width="50" height="50" relative="1" as="geometry">
            <mxPoint x="460" y="100" as="sourcePoint" />
            <mxPoint x="510" y="50" as="targetPoint" />
          </mxGeometry>
        </mxCell>
        <mxCell id="QpfmmC1W76dxefHkC_hs-110" value="" style="endArrow=classic;startArrow=classic;html=1;rounded=0;entryX=0;entryY=0.5;entryDx=0;entryDy=0;edgeStyle=orthogonalEdgeStyle;" parent="QpfmmC1W76dxefHkC_hs-6" target="QpfmmC1W76dxefHkC_hs-16" edge="1">
          <mxGeometry width="50" height="50" relative="1" as="geometry">
            <mxPoint x="130" y="260" as="sourcePoint" />
            <mxPoint x="180" y="210" as="targetPoint" />
          </mxGeometry>
        </mxCell>
        <mxCell id="QpfmmC1W76dxefHkC_hs-111" value="" style="endArrow=classic;startArrow=classic;html=1;rounded=0;exitX=1;exitY=0.5;exitDx=0;exitDy=0;entryX=0;entryY=0.75;entryDx=0;entryDy=0;edgeStyle=orthogonalEdgeStyle;" parent="QpfmmC1W76dxefHkC_hs-6" source="QpfmmC1W76dxefHkC_hs-20" target="QpfmmC1W76dxefHkC_hs-16" edge="1">
          <mxGeometry width="50" height="50" relative="1" as="geometry">
            <mxPoint x="460" y="100" as="sourcePoint" />
            <mxPoint x="510" y="50" as="targetPoint" />
            <Array as="points">
              <mxPoint x="190" y="340" />
              <mxPoint x="190" y="205" />
            </Array>
          </mxGeometry>
        </mxCell>
        <mxCell id="QpfmmC1W76dxefHkC_hs-112" value="" style="endArrow=classic;startArrow=classic;html=1;rounded=0;exitX=1;exitY=0.5;exitDx=0;exitDy=0;entryX=0.25;entryY=1;entryDx=0;entryDy=0;edgeStyle=orthogonalEdgeStyle;" parent="QpfmmC1W76dxefHkC_hs-6" source="QpfmmC1W76dxefHkC_hs-30" target="QpfmmC1W76dxefHkC_hs-16" edge="1">
          <mxGeometry width="50" height="50" relative="1" as="geometry">
            <mxPoint x="460" y="100" as="sourcePoint" />
            <mxPoint x="510" y="50" as="targetPoint" />
            <Array as="points">
              <mxPoint x="210" y="425" />
              <mxPoint x="210" y="290" />
              <mxPoint x="260" y="290" />
            </Array>
          </mxGeometry>
        </mxCell>
        <mxCell id="QpfmmC1W76dxefHkC_hs-122" value="Load localization" style="shape=process;whiteSpace=wrap;html=1;backgroundOutline=1;fillColor=#e1d5e7;strokeColor=#9673a6;" parent="QpfmmC1W76dxefHkC_hs-6" vertex="1">
          <mxGeometry x="350" y="50" width="120" height="60" as="geometry" />
        </mxCell>
        <mxCell id="BJpE14f_ovSwA0AjCKdM-0" value="Major error modal" style="rounded=1;whiteSpace=wrap;html=1;" parent="QpfmmC1W76dxefHkC_hs-6" vertex="1">
          <mxGeometry x="10" y="480" width="120" height="60" as="geometry" />
        </mxCell>
        <mxCell id="QpfmmC1W76dxefHkC_hs-9" value="" style="endArrow=classic;startArrow=classic;html=1;rounded=0;entryX=0.5;entryY=1;entryDx=0;entryDy=0;exitX=0.5;exitY=0;exitDx=0;exitDy=0;edgeStyle=orthogonalEdgeStyle;" parent="WIyWlLk6GJQsqaUBKTNV-1" source="QpfmmC1W76dxefHkC_hs-2" target="QpfmmC1W76dxefHkC_hs-1" edge="1">
          <mxGeometry width="50" height="50" relative="1" as="geometry">
            <mxPoint x="390" y="350" as="sourcePoint" />
            <mxPoint x="440" y="300" as="targetPoint" />
          </mxGeometry>
        </mxCell>
        <mxCell id="QpfmmC1W76dxefHkC_hs-14" value="" style="endArrow=classic;html=1;rounded=0;entryX=0.5;entryY=1;entryDx=0;entryDy=0;edgeStyle=orthogonalEdgeStyle;fillColor=#dae8fc;strokeColor=#6c8ebf;" parent="WIyWlLk6GJQsqaUBKTNV-1" target="QpfmmC1W76dxefHkC_hs-15" edge="1">
          <mxGeometry width="50" height="50" relative="1" as="geometry">
            <mxPoint x="300" y="610" as="sourcePoint" />
            <mxPoint x="440" y="300" as="targetPoint" />
          </mxGeometry>
        </mxCell>
        <mxCell id="QpfmmC1W76dxefHkC_hs-93" value="" style="endArrow=classic;startArrow=classic;html=1;rounded=0;exitX=0.5;exitY=0;exitDx=0;exitDy=0;entryX=1;entryY=0.75;entryDx=0;entryDy=0;edgeStyle=orthogonalEdgeStyle;fillColor=#dae8fc;strokeColor=#6c8ebf;" parent="WIyWlLk6GJQsqaUBKTNV-1" source="QpfmmC1W76dxefHkC_hs-5" target="QpfmmC1W76dxefHkC_hs-0" edge="1">
          <mxGeometry width="50" height="50" relative="1" as="geometry">
            <mxPoint x="250" y="300" as="sourcePoint" />
            <mxPoint x="300" y="250" as="targetPoint" />
          </mxGeometry>
        </mxCell>
        <mxCell id="QpfmmC1W76dxefHkC_hs-105" style="edgeStyle=orthogonalEdgeStyle;rounded=0;orthogonalLoop=1;jettySize=auto;html=1;exitX=1;exitY=0.5;exitDx=0;exitDy=0;entryX=0;entryY=0.5;entryDx=0;entryDy=0;" parent="WIyWlLk6GJQsqaUBKTNV-1" source="QpfmmC1W76dxefHkC_hs-98" target="QpfmmC1W76dxefHkC_hs-95" edge="1">
          <mxGeometry relative="1" as="geometry" />
        </mxCell>
        <mxCell id="QpfmmC1W76dxefHkC_hs-98" value="Flash message Class" style="swimlane;whiteSpace=wrap;html=1;fillColor=#dae8fc;strokeColor=#6c8ebf;" parent="WIyWlLk6GJQsqaUBKTNV-1" vertex="1">
          <mxGeometry x="-470" y="265" width="200" height="200" as="geometry" />
        </mxCell>
        <mxCell id="QpfmmC1W76dxefHkC_hs-113" value="Display flash message" style="shape=process;whiteSpace=wrap;html=1;backgroundOutline=1;" parent="QpfmmC1W76dxefHkC_hs-98" vertex="1">
          <mxGeometry x="40" y="45" width="120" height="60" as="geometry" />
        </mxCell>
        <mxCell id="QpfmmC1W76dxefHkC_hs-114" value="Hide flash message (timer)" style="shape=process;whiteSpace=wrap;html=1;backgroundOutline=1;" parent="QpfmmC1W76dxefHkC_hs-98" vertex="1">
          <mxGeometry x="40" y="119" width="120" height="60" as="geometry" />
        </mxCell>
        <mxCell id="QpfmmC1W76dxefHkC_hs-106" value="" style="endArrow=classic;startArrow=classic;html=1;rounded=0;entryX=0.5;entryY=1;entryDx=0;entryDy=0;exitX=0.5;exitY=0;exitDx=0;exitDy=0;edgeStyle=orthogonalEdgeStyle;fillColor=#dae8fc;strokeColor=#6c8ebf;" parent="WIyWlLk6GJQsqaUBKTNV-1" source="QpfmmC1W76dxefHkC_hs-16" target="QpfmmC1W76dxefHkC_hs-0" edge="1">
          <mxGeometry width="50" height="50" relative="1" as="geometry">
            <mxPoint x="240" y="290" as="sourcePoint" />
            <mxPoint x="290" y="240" as="targetPoint" />
            <Array as="points">
              <mxPoint x="70" y="170" />
              <mxPoint x="-135" y="170" />
            </Array>
          </mxGeometry>
        </mxCell>
        <mxCell id="QpfmmC1W76dxefHkC_hs-137" style="edgeStyle=orthogonalEdgeStyle;rounded=0;orthogonalLoop=1;jettySize=auto;html=1;exitX=0.5;exitY=1;exitDx=0;exitDy=0;exitPerimeter=0;entryX=0.5;entryY=0;entryDx=0;entryDy=0;fillColor=#f8cecc;strokeColor=#b85450;" parent="WIyWlLk6GJQsqaUBKTNV-1" source="QpfmmC1W76dxefHkC_hs-124" target="QpfmmC1W76dxefHkC_hs-122" edge="1">
          <mxGeometry relative="1" as="geometry" />
        </mxCell>
        <mxCell id="QpfmmC1W76dxefHkC_hs-142" value="Load strings" style="edgeLabel;html=1;align=center;verticalAlign=middle;resizable=0;points=[];" parent="QpfmmC1W76dxefHkC_hs-137" vertex="1" connectable="0">
          <mxGeometry x="0.1081" y="-1" relative="1" as="geometry">
            <mxPoint as="offset" />
          </mxGeometry>
        </mxCell>
        <mxCell id="QpfmmC1W76dxefHkC_hs-138" style="edgeStyle=orthogonalEdgeStyle;rounded=0;orthogonalLoop=1;jettySize=auto;html=1;exitX=0;exitY=0;exitDx=25;exitDy=0;exitPerimeter=0;entryX=1;entryY=0.75;entryDx=0;entryDy=0;fillColor=#f8cecc;strokeColor=#b85450;" parent="WIyWlLk6GJQsqaUBKTNV-1" source="QpfmmC1W76dxefHkC_hs-124" target="QpfmmC1W76dxefHkC_hs-39" edge="1">
          <mxGeometry relative="1" as="geometry">
            <Array as="points">
              <mxPoint x="175" y="-270" />
              <mxPoint x="910" y="-270" />
              <mxPoint x="910" y="185" />
            </Array>
          </mxGeometry>
        </mxCell>
        <mxCell id="QpfmmC1W76dxefHkC_hs-141" value="Load strings" style="edgeLabel;html=1;align=center;verticalAlign=middle;resizable=0;points=[];" parent="QpfmmC1W76dxefHkC_hs-138" vertex="1" connectable="0">
          <mxGeometry x="0.3338" y="4" relative="1" as="geometry">
            <mxPoint as="offset" />
          </mxGeometry>
        </mxCell>
        <mxCell id="QpfmmC1W76dxefHkC_hs-124" value="localization files (.mo)" style="shape=note;whiteSpace=wrap;html=1;backgroundOutline=1;darkOpacity=0.05;fillColor=#f8cecc;strokeColor=#b85450;" parent="WIyWlLk6GJQsqaUBKTNV-1" vertex="1">
          <mxGeometry x="150" y="-230" width="80" height="100" as="geometry" />
        </mxCell>
        <mxCell id="QpfmmC1W76dxefHkC_hs-145" style="edgeStyle=orthogonalEdgeStyle;rounded=0;orthogonalLoop=1;jettySize=auto;html=1;exitX=0;exitY=0;exitDx=80;exitDy=65;exitPerimeter=0;entryX=0;entryY=0.5;entryDx=0;entryDy=0;fillColor=#ffe6cc;strokeColor=#d79b00;" parent="WIyWlLk6GJQsqaUBKTNV-1" source="QpfmmC1W76dxefHkC_hs-129" target="QpfmmC1W76dxefHkC_hs-131" edge="1">
          <mxGeometry relative="1" as="geometry" />
        </mxCell>
        <mxCell id="QpfmmC1W76dxefHkC_hs-146" value="load &lt;br&gt;credentials" style="edgeLabel;html=1;align=center;verticalAlign=middle;resizable=0;points=[];" parent="QpfmmC1W76dxefHkC_hs-145" vertex="1" connectable="0">
          <mxGeometry x="-0.102" y="2" relative="1" as="geometry">
            <mxPoint as="offset" />
          </mxGeometry>
        </mxCell>
        <mxCell id="QpfmmC1W76dxefHkC_hs-129" value="settings.php" style="shape=note;whiteSpace=wrap;html=1;backgroundOutline=1;darkOpacity=0.05;fillColor=#ffe6cc;strokeColor=#d79b00;" parent="WIyWlLk6GJQsqaUBKTNV-1" vertex="1">
          <mxGeometry x="360" y="-230" width="80" height="100" as="geometry" />
        </mxCell>
        <mxCell id="QpfmmC1W76dxefHkC_hs-151" style="edgeStyle=orthogonalEdgeStyle;rounded=0;orthogonalLoop=1;jettySize=auto;html=1;exitX=1;exitY=0.5;exitDx=0;exitDy=0;entryX=0;entryY=0.5;entryDx=0;entryDy=0;fillColor=#dae8fc;strokeColor=#6c8ebf;" parent="WIyWlLk6GJQsqaUBKTNV-1" source="QpfmmC1W76dxefHkC_hs-91" target="QpfmmC1W76dxefHkC_hs-34" edge="1">
          <mxGeometry relative="1" as="geometry" />
        </mxCell>
        <mxCell id="QpfmmC1W76dxefHkC_hs-152" style="edgeStyle=orthogonalEdgeStyle;rounded=0;orthogonalLoop=1;jettySize=auto;html=1;exitX=0;exitY=0.5;exitDx=0;exitDy=0;entryX=1;entryY=0.5;entryDx=0;entryDy=0;fillColor=#e1d5e7;strokeColor=#9673a6;" parent="WIyWlLk6GJQsqaUBKTNV-1" source="QpfmmC1W76dxefHkC_hs-33" target="QpfmmC1W76dxefHkC_hs-82" edge="1">
          <mxGeometry relative="1" as="geometry" />
        </mxCell>
        <mxCell id="QpfmmC1W76dxefHkC_hs-153" value="read&lt;div&gt;&amp;nbsp;characters&amp;nbsp;&lt;br&gt;&lt;/div&gt;&lt;div&gt;&lt;div&gt;from DB&lt;/div&gt;&lt;/div&gt;" style="edgeLabel;html=1;align=center;verticalAlign=middle;resizable=0;points=[];" parent="QpfmmC1W76dxefHkC_hs-152" vertex="1" connectable="0">
          <mxGeometry x="0.3058" y="2" relative="1" as="geometry">
            <mxPoint y="1" as="offset" />
          </mxGeometry>
        </mxCell>
        <mxCell id="QpfmmC1W76dxefHkC_hs-167" style="edgeStyle=orthogonalEdgeStyle;rounded=0;orthogonalLoop=1;jettySize=auto;html=1;exitX=0;exitY=0.25;exitDx=0;exitDy=0;entryX=1;entryY=0.5;entryDx=0;entryDy=0;fillColor=#e1d5e7;strokeColor=#9673a6;" parent="WIyWlLk6GJQsqaUBKTNV-1" source="QpfmmC1W76dxefHkC_hs-33" target="QpfmmC1W76dxefHkC_hs-88" edge="1">
          <mxGeometry relative="1" as="geometry">
            <Array as="points">
              <mxPoint x="420" y="-15" />
              <mxPoint x="420" y="-100" />
              <mxPoint x="100" y="-100" />
              <mxPoint x="100" y="-170" />
            </Array>
          </mxGeometry>
        </mxCell>
        <mxCell id="EXZawt5WP3sgXpvTL2IV-4" style="edgeStyle=orthogonalEdgeStyle;rounded=0;orthogonalLoop=1;jettySize=auto;html=1;exitX=0.25;exitY=1;exitDx=0;exitDy=0;entryX=1;entryY=0.5;entryDx=0;entryDy=0;fillColor=#dae8fc;strokeColor=#6c8ebf;" edge="1" parent="WIyWlLk6GJQsqaUBKTNV-1" source="QpfmmC1W76dxefHkC_hs-39" target="EXZawt5WP3sgXpvTL2IV-1">
          <mxGeometry relative="1" as="geometry" />
        </mxCell>
        <mxCell id="EXZawt5WP3sgXpvTL2IV-7" value="Load strings&lt;div&gt;via AJAX&lt;/div&gt;" style="edgeLabel;html=1;align=center;verticalAlign=middle;resizable=0;points=[];" vertex="1" connectable="0" parent="EXZawt5WP3sgXpvTL2IV-4">
          <mxGeometry x="-0.1424" y="2" relative="1" as="geometry">
            <mxPoint as="offset" />
          </mxGeometry>
        </mxCell>
        <mxCell id="EXZawt5WP3sgXpvTL2IV-5" style="edgeStyle=orthogonalEdgeStyle;rounded=0;orthogonalLoop=1;jettySize=auto;html=1;exitX=0;exitY=0.5;exitDx=0;exitDy=0;entryX=0.5;entryY=1;entryDx=0;entryDy=0;fillColor=#dae8fc;strokeColor=#6c8ebf;" edge="1" parent="WIyWlLk6GJQsqaUBKTNV-1" source="QpfmmC1W76dxefHkC_hs-39" target="EXZawt5WP3sgXpvTL2IV-0">
          <mxGeometry relative="1" as="geometry">
            <Array as="points">
              <mxPoint x="500" y="170" />
              <mxPoint x="500" y="130" />
              <mxPoint x="-60" y="130" />
            </Array>
          </mxGeometry>
        </mxCell>
        <mxCell id="EXZawt5WP3sgXpvTL2IV-6" value="Load strings&amp;nbsp;&lt;div&gt;via AJAX&lt;/div&gt;" style="edgeLabel;html=1;align=center;verticalAlign=middle;resizable=0;points=[];" vertex="1" connectable="0" parent="EXZawt5WP3sgXpvTL2IV-5">
          <mxGeometry x="-0.061" y="3" relative="1" as="geometry">
            <mxPoint as="offset" />
          </mxGeometry>
        </mxCell>
      </root>
    </mxGraphModel>
  </diagram>
  <diagram id="-QbglmIhPjWzWca5m6v6" name="PHP/HTML Frontend">
    <mxGraphModel dx="1434" dy="827" grid="1" gridSize="10" guides="1" tooltips="1" connect="1" arrows="1" fold="1" page="1" pageScale="1" pageWidth="850" pageHeight="1100" math="0" shadow="0">
      <root>
        <mxCell id="0" />
        <mxCell id="1" parent="0" />
        <mxCell id="c98BlLg_FZE43dvxWQKM-12" style="edgeStyle=orthogonalEdgeStyle;rounded=0;orthogonalLoop=1;jettySize=auto;html=1;exitX=1;exitY=0.5;exitDx=0;exitDy=0;entryX=0;entryY=0.5;entryDx=0;entryDy=0;" parent="1" source="i0rSFWAsYWZlYk2aCNbQ-1" target="i0rSFWAsYWZlYk2aCNbQ-2" edge="1">
          <mxGeometry relative="1" as="geometry" />
        </mxCell>
        <mxCell id="i0rSFWAsYWZlYk2aCNbQ-1" value="START" style="rounded=1;whiteSpace=wrap;html=1;" parent="1" vertex="1">
          <mxGeometry x="150" y="40" width="120" height="60" as="geometry" />
        </mxCell>
        <mxCell id="rOB0dn2Z4r6pRF8CEULn-21" style="edgeStyle=orthogonalEdgeStyle;rounded=0;orthogonalLoop=1;jettySize=auto;html=1;exitX=0.5;exitY=1;exitDx=0;exitDy=0;entryX=0.5;entryY=0;entryDx=0;entryDy=0;" parent="1" source="i0rSFWAsYWZlYk2aCNbQ-2" target="rOB0dn2Z4r6pRF8CEULn-1" edge="1">
          <mxGeometry relative="1" as="geometry" />
        </mxCell>
        <mxCell id="i0rSFWAsYWZlYk2aCNbQ-2" value="Pull locale from cookie" style="shape=process;whiteSpace=wrap;html=1;backgroundOutline=1;" parent="1" vertex="1">
          <mxGeometry x="368" y="40" width="120" height="60" as="geometry" />
        </mxCell>
        <mxCell id="rOB0dn2Z4r6pRF8CEULn-19" style="edgeStyle=orthogonalEdgeStyle;rounded=0;orthogonalLoop=1;jettySize=auto;html=1;exitX=1;exitY=0.5;exitDx=0;exitDy=0;entryX=0;entryY=0.5;entryDx=0;entryDy=0;" parent="1" source="rOB0dn2Z4r6pRF8CEULn-1" target="rOB0dn2Z4r6pRF8CEULn-2" edge="1">
          <mxGeometry relative="1" as="geometry" />
        </mxCell>
        <mxCell id="rOB0dn2Z4r6pRF8CEULn-20" value="No" style="edgeLabel;html=1;align=center;verticalAlign=middle;resizable=0;points=[];" parent="rOB0dn2Z4r6pRF8CEULn-19" vertex="1" connectable="0">
          <mxGeometry x="-0.0571" y="-1" relative="1" as="geometry">
            <mxPoint as="offset" />
          </mxGeometry>
        </mxCell>
        <mxCell id="rOB0dn2Z4r6pRF8CEULn-23" style="edgeStyle=orthogonalEdgeStyle;rounded=0;orthogonalLoop=1;jettySize=auto;html=1;exitX=0.5;exitY=1;exitDx=0;exitDy=0;entryX=0.5;entryY=0;entryDx=0;entryDy=0;" parent="1" source="rOB0dn2Z4r6pRF8CEULn-1" target="rOB0dn2Z4r6pRF8CEULn-22" edge="1">
          <mxGeometry relative="1" as="geometry" />
        </mxCell>
        <mxCell id="rOB0dn2Z4r6pRF8CEULn-27" value="Yes" style="edgeLabel;html=1;align=center;verticalAlign=middle;resizable=0;points=[];" parent="rOB0dn2Z4r6pRF8CEULn-23" vertex="1" connectable="0">
          <mxGeometry x="0.05" y="3" relative="1" as="geometry">
            <mxPoint as="offset" />
          </mxGeometry>
        </mxCell>
        <mxCell id="rOB0dn2Z4r6pRF8CEULn-1" value="cookie &lt;br&gt;exists?" style="rhombus;whiteSpace=wrap;html=1;" parent="1" vertex="1">
          <mxGeometry x="388" y="150" width="80" height="80" as="geometry" />
        </mxCell>
        <mxCell id="rOB0dn2Z4r6pRF8CEULn-24" style="edgeStyle=orthogonalEdgeStyle;rounded=0;orthogonalLoop=1;jettySize=auto;html=1;exitX=0.5;exitY=1;exitDx=0;exitDy=0;entryX=1;entryY=0.5;entryDx=0;entryDy=0;" parent="1" source="rOB0dn2Z4r6pRF8CEULn-2" target="rOB0dn2Z4r6pRF8CEULn-22" edge="1">
          <mxGeometry relative="1" as="geometry" />
        </mxCell>
        <mxCell id="rOB0dn2Z4r6pRF8CEULn-2" value="pull locale from browser" style="shape=process;whiteSpace=wrap;html=1;backgroundOutline=1;" parent="1" vertex="1">
          <mxGeometry x="608" y="160" width="120" height="60" as="geometry" />
        </mxCell>
        <mxCell id="rOB0dn2Z4r6pRF8CEULn-16" style="edgeStyle=orthogonalEdgeStyle;rounded=0;orthogonalLoop=1;jettySize=auto;html=1;exitX=0.5;exitY=1;exitDx=0;exitDy=0;entryX=0.5;entryY=0;entryDx=0;entryDy=0;" parent="1" source="c98BlLg_FZE43dvxWQKM-1" target="rOB0dn2Z4r6pRF8CEULn-4" edge="1">
          <mxGeometry relative="1" as="geometry" />
        </mxCell>
        <mxCell id="rOB0dn2Z4r6pRF8CEULn-3" value="localize strings with gettext" style="shape=process;whiteSpace=wrap;html=1;backgroundOutline=1;" parent="1" vertex="1">
          <mxGeometry x="150" y="330" width="120" height="60" as="geometry" />
        </mxCell>
        <mxCell id="rOB0dn2Z4r6pRF8CEULn-15" style="edgeStyle=orthogonalEdgeStyle;rounded=0;orthogonalLoop=1;jettySize=auto;html=1;exitX=0.5;exitY=1;exitDx=0;exitDy=0;entryX=0.5;entryY=0;entryDx=0;entryDy=0;" parent="1" source="rOB0dn2Z4r6pRF8CEULn-4" target="rOB0dn2Z4r6pRF8CEULn-6" edge="1">
          <mxGeometry relative="1" as="geometry" />
        </mxCell>
        <mxCell id="rOB0dn2Z4r6pRF8CEULn-4" value="Render HTML" style="rounded=0;whiteSpace=wrap;html=1;" parent="1" vertex="1">
          <mxGeometry x="150" y="552" width="120" height="60" as="geometry" />
        </mxCell>
        <mxCell id="rOB0dn2Z4r6pRF8CEULn-14" style="edgeStyle=orthogonalEdgeStyle;rounded=0;orthogonalLoop=1;jettySize=auto;html=1;exitX=0.5;exitY=1;exitDx=0;exitDy=0;entryX=0.5;entryY=0;entryDx=0;entryDy=0;" parent="1" source="rOB0dn2Z4r6pRF8CEULn-6" target="rOB0dn2Z4r6pRF8CEULn-7" edge="1">
          <mxGeometry relative="1" as="geometry" />
        </mxCell>
        <mxCell id="rOB0dn2Z4r6pRF8CEULn-6" value="load and init&lt;br&gt;Character JS" style="shape=process;whiteSpace=wrap;html=1;backgroundOutline=1;" parent="1" vertex="1">
          <mxGeometry x="150" y="742" width="120" height="60" as="geometry" />
        </mxCell>
        <mxCell id="rOB0dn2Z4r6pRF8CEULn-13" style="edgeStyle=orthogonalEdgeStyle;rounded=0;orthogonalLoop=1;jettySize=auto;html=1;exitX=0.5;exitY=1;exitDx=0;exitDy=0;entryX=0.5;entryY=0;entryDx=0;entryDy=0;" parent="1" source="rOB0dn2Z4r6pRF8CEULn-7" target="rOB0dn2Z4r6pRF8CEULn-11" edge="1">
          <mxGeometry relative="1" as="geometry" />
        </mxCell>
        <mxCell id="rOB0dn2Z4r6pRF8CEULn-7" value="load and init&lt;br&gt;List JS" style="shape=process;whiteSpace=wrap;html=1;backgroundOutline=1;" parent="1" vertex="1">
          <mxGeometry x="150" y="832" width="120" height="60" as="geometry" />
        </mxCell>
        <mxCell id="rOB0dn2Z4r6pRF8CEULn-9" value="STOP" style="rounded=1;whiteSpace=wrap;html=1;" parent="1" vertex="1">
          <mxGeometry x="150" y="1022" width="120" height="60" as="geometry" />
        </mxCell>
        <mxCell id="rOB0dn2Z4r6pRF8CEULn-12" style="edgeStyle=orthogonalEdgeStyle;rounded=0;orthogonalLoop=1;jettySize=auto;html=1;exitX=0.5;exitY=1;exitDx=0;exitDy=0;entryX=0.5;entryY=0;entryDx=0;entryDy=0;" parent="1" source="rOB0dn2Z4r6pRF8CEULn-11" target="rOB0dn2Z4r6pRF8CEULn-9" edge="1">
          <mxGeometry relative="1" as="geometry" />
        </mxCell>
        <mxCell id="rOB0dn2Z4r6pRF8CEULn-11" value="List JS loads &lt;br&gt;and renders list" style="shape=process;whiteSpace=wrap;html=1;backgroundOutline=1;" parent="1" vertex="1">
          <mxGeometry x="150" y="922" width="120" height="60" as="geometry" />
        </mxCell>
        <mxCell id="rOB0dn2Z4r6pRF8CEULn-25" style="edgeStyle=orthogonalEdgeStyle;rounded=0;orthogonalLoop=1;jettySize=auto;html=1;exitX=0;exitY=0.5;exitDx=0;exitDy=0;entryX=1;entryY=0.5;entryDx=0;entryDy=0;" parent="1" source="rOB0dn2Z4r6pRF8CEULn-22" target="rOB0dn2Z4r6pRF8CEULn-3" edge="1">
          <mxGeometry relative="1" as="geometry" />
        </mxCell>
        <mxCell id="rOB0dn2Z4r6pRF8CEULn-28" value="Yes" style="edgeLabel;html=1;align=center;verticalAlign=middle;resizable=0;points=[];" parent="rOB0dn2Z4r6pRF8CEULn-25" vertex="1" connectable="0">
          <mxGeometry x="-0.0357" y="2" relative="1" as="geometry">
            <mxPoint as="offset" />
          </mxGeometry>
        </mxCell>
        <mxCell id="rOB0dn2Z4r6pRF8CEULn-26" style="edgeStyle=orthogonalEdgeStyle;rounded=0;orthogonalLoop=1;jettySize=auto;html=1;exitX=0.5;exitY=1;exitDx=0;exitDy=0;entryX=1;entryY=0.5;entryDx=0;entryDy=0;" parent="1" source="rOB0dn2Z4r6pRF8CEULn-22" target="c98BlLg_FZE43dvxWQKM-1" edge="1">
          <mxGeometry relative="1" as="geometry" />
        </mxCell>
        <mxCell id="rOB0dn2Z4r6pRF8CEULn-29" value="No" style="edgeLabel;html=1;align=center;verticalAlign=middle;resizable=0;points=[];" parent="rOB0dn2Z4r6pRF8CEULn-26" vertex="1" connectable="0">
          <mxGeometry x="-0.5755" relative="1" as="geometry">
            <mxPoint as="offset" />
          </mxGeometry>
        </mxCell>
        <mxCell id="rOB0dn2Z4r6pRF8CEULn-22" value="locale &lt;br&gt;translation&lt;br&gt;exists?" style="rhombus;whiteSpace=wrap;html=1;" parent="1" vertex="1">
          <mxGeometry x="365" y="305" width="120" height="110" as="geometry" />
        </mxCell>
        <mxCell id="c98BlLg_FZE43dvxWQKM-2" value="" style="edgeStyle=orthogonalEdgeStyle;rounded=0;orthogonalLoop=1;jettySize=auto;html=1;exitX=0.5;exitY=1;exitDx=0;exitDy=0;entryX=0.5;entryY=0;entryDx=0;entryDy=0;" parent="1" source="rOB0dn2Z4r6pRF8CEULn-3" target="c98BlLg_FZE43dvxWQKM-1" edge="1">
          <mxGeometry relative="1" as="geometry">
            <mxPoint x="210" y="390" as="sourcePoint" />
            <mxPoint x="210" y="622" as="targetPoint" />
          </mxGeometry>
        </mxCell>
        <mxCell id="c98BlLg_FZE43dvxWQKM-1" value="Get list of available locales from system" style="shape=process;whiteSpace=wrap;html=1;backgroundOutline=1;" parent="1" vertex="1">
          <mxGeometry x="150" y="462" width="120" height="60" as="geometry" />
        </mxCell>
        <mxCell id="c98BlLg_FZE43dvxWQKM-11" value="Load and init Language picker JS" style="shape=process;whiteSpace=wrap;html=1;backgroundOutline=1;" parent="1" vertex="1">
          <mxGeometry x="150" y="642" width="120" height="60" as="geometry" />
        </mxCell>
      </root>
    </mxGraphModel>
  </diagram>
  <diagram id="bw_lNfyUoghNcqVoVxzj" name="PHP Backend">
    <mxGraphModel dx="1434" dy="827" grid="1" gridSize="10" guides="1" tooltips="1" connect="1" arrows="1" fold="1" page="1" pageScale="1" pageWidth="850" pageHeight="1100" math="0" shadow="0">
      <root>
        <mxCell id="0" />
        <mxCell id="1" parent="0" />
        <mxCell id="ZZKAg6aDGRZksHE4VNxU-2" value="load JS strings &lt;br&gt;&lt;i&gt;?action=jsstrings&lt;/i&gt; (GET or POST)" style="swimlane;whiteSpace=wrap;html=1;startSize=50;fillColor=#dae8fc;strokeColor=#6c8ebf;" vertex="1" parent="1">
          <mxGeometry x="400" y="630" width="400" height="450" as="geometry" />
        </mxCell>
        <mxCell id="ZZKAg6aDGRZksHE4VNxU-71" style="edgeStyle=orthogonalEdgeStyle;rounded=0;orthogonalLoop=1;jettySize=auto;html=1;exitX=0.5;exitY=1;exitDx=0;exitDy=0;entryX=0.5;entryY=0;entryDx=0;entryDy=0;" edge="1" parent="ZZKAg6aDGRZksHE4VNxU-2" source="ZZKAg6aDGRZksHE4VNxU-66" target="ZZKAg6aDGRZksHE4VNxU-67">
          <mxGeometry relative="1" as="geometry" />
        </mxCell>
        <mxCell id="ZZKAg6aDGRZksHE4VNxU-66" value="execute localiztion" style="shape=process;whiteSpace=wrap;html=1;backgroundOutline=1;" vertex="1" parent="ZZKAg6aDGRZksHE4VNxU-2">
          <mxGeometry x="140" y="230" width="120" height="50" as="geometry" />
        </mxCell>
        <mxCell id="ZZKAg6aDGRZksHE4VNxU-67" value="print as JSON encoded string" style="shape=process;whiteSpace=wrap;html=1;backgroundOutline=1;" vertex="1" parent="ZZKAg6aDGRZksHE4VNxU-2">
          <mxGeometry x="140" y="330" width="120" height="50" as="geometry" />
        </mxCell>
        <mxCell id="ZZKAg6aDGRZksHE4VNxU-70" style="edgeStyle=orthogonalEdgeStyle;rounded=0;orthogonalLoop=1;jettySize=auto;html=1;exitX=0.5;exitY=1;exitDx=0;exitDy=0;exitPerimeter=0;entryX=0.5;entryY=0;entryDx=0;entryDy=0;" edge="1" parent="ZZKAg6aDGRZksHE4VNxU-2" source="ZZKAg6aDGRZksHE4VNxU-68" target="ZZKAg6aDGRZksHE4VNxU-66">
          <mxGeometry relative="1" as="geometry" />
        </mxCell>
        <mxCell id="ZZKAg6aDGRZksHE4VNxU-68" value="js_strings.php&lt;div&gt;&lt;br&gt;&lt;/div&gt;" style="shape=note;whiteSpace=wrap;html=1;backgroundOutline=1;darkOpacity=0.05;" vertex="1" parent="ZZKAg6aDGRZksHE4VNxU-2">
          <mxGeometry x="160" y="90" width="80" height="100" as="geometry" />
        </mxCell>
        <mxCell id="ZZKAg6aDGRZksHE4VNxU-69" value="Contains associative array of strings wrapped in &lt;i&gt;_()&lt;/i&gt;" style="text;html=1;align=center;verticalAlign=middle;whiteSpace=wrap;rounded=0;" vertex="1" parent="ZZKAg6aDGRZksHE4VNxU-2">
          <mxGeometry x="250" y="120" width="130" height="70" as="geometry" />
        </mxCell>
        <mxCell id="ZZKAg6aDGRZksHE4VNxU-4" value="read from DB&lt;br&gt;&lt;i&gt;?action=fetch&lt;/i&gt; (GET or POST)" style="swimlane;whiteSpace=wrap;html=1;startSize=50;fillColor=#d5e8d4;strokeColor=#82b366;" vertex="1" parent="1">
          <mxGeometry x="875" y="40" width="805" height="1040" as="geometry" />
        </mxCell>
        <mxCell id="ZZKAg6aDGRZksHE4VNxU-74" value="what" style="swimlane;fontStyle=0;childLayout=stackLayout;horizontal=1;startSize=30;horizontalStack=0;resizeParent=1;resizeParentMax=0;resizeLast=0;collapsible=1;marginBottom=0;whiteSpace=wrap;html=1;" vertex="1" parent="ZZKAg6aDGRZksHE4VNxU-4">
          <mxGeometry x="45" y="80" width="140" height="120" as="geometry" />
        </mxCell>
        <mxCell id="ZZKAg6aDGRZksHE4VNxU-75" value="base" style="text;strokeColor=none;fillColor=none;align=left;verticalAlign=middle;spacingLeft=4;spacingRight=4;overflow=hidden;points=[[0,0.5],[1,0.5]];portConstraint=eastwest;rotatable=0;whiteSpace=wrap;html=1;" vertex="1" parent="ZZKAg6aDGRZksHE4VNxU-74">
          <mxGeometry y="30" width="140" height="30" as="geometry" />
        </mxCell>
        <mxCell id="ZZKAg6aDGRZksHE4VNxU-77" value="list" style="text;strokeColor=none;fillColor=none;align=left;verticalAlign=middle;spacingLeft=4;spacingRight=4;overflow=hidden;points=[[0,0.5],[1,0.5]];portConstraint=eastwest;rotatable=0;whiteSpace=wrap;html=1;" vertex="1" parent="ZZKAg6aDGRZksHE4VNxU-74">
          <mxGeometry y="60" width="140" height="30" as="geometry" />
        </mxCell>
        <mxCell id="ZZKAg6aDGRZksHE4VNxU-76" value="character" style="text;strokeColor=none;fillColor=none;align=left;verticalAlign=middle;spacingLeft=4;spacingRight=4;overflow=hidden;points=[[0,0.5],[1,0.5]];portConstraint=eastwest;rotatable=0;whiteSpace=wrap;html=1;" vertex="1" parent="ZZKAg6aDGRZksHE4VNxU-74">
          <mxGeometry y="90" width="140" height="30" as="geometry" />
        </mxCell>
        <mxCell id="ZZKAg6aDGRZksHE4VNxU-97" style="edgeStyle=orthogonalEdgeStyle;rounded=0;orthogonalLoop=1;jettySize=auto;html=1;exitX=1;exitY=0.5;exitDx=0;exitDy=0;entryX=1;entryY=0.5;entryDx=0;entryDy=0;" edge="1" parent="ZZKAg6aDGRZksHE4VNxU-4" source="ZZKAg6aDGRZksHE4VNxU-78" target="ZZKAg6aDGRZksHE4VNxU-79">
          <mxGeometry relative="1" as="geometry">
            <Array as="points">
              <mxPoint x="775" y="180" />
              <mxPoint x="775" y="975" />
            </Array>
          </mxGeometry>
        </mxCell>
        <mxCell id="ZZKAg6aDGRZksHE4VNxU-78" value="Common Data" style="swimlane;whiteSpace=wrap;html=1;" vertex="1" parent="ZZKAg6aDGRZksHE4VNxU-4">
          <mxGeometry x="245" y="80" width="475" height="200" as="geometry" />
        </mxCell>
        <mxCell id="ZZKAg6aDGRZksHE4VNxU-90" value="Query all entries from" style="swimlane;fontStyle=0;childLayout=stackLayout;horizontal=1;startSize=30;horizontalStack=0;resizeParent=1;resizeParentMax=0;resizeLast=0;collapsible=1;marginBottom=0;whiteSpace=wrap;html=1;" vertex="1" parent="ZZKAg6aDGRZksHE4VNxU-78">
          <mxGeometry x="20" y="40" width="140" height="150" as="geometry" />
        </mxCell>
        <mxCell id="ZZKAg6aDGRZksHE4VNxU-91" value="actors" style="text;strokeColor=none;fillColor=none;align=left;verticalAlign=middle;spacingLeft=4;spacingRight=4;overflow=hidden;points=[[0,0.5],[1,0.5]];portConstraint=eastwest;rotatable=0;whiteSpace=wrap;html=1;" vertex="1" parent="ZZKAg6aDGRZksHE4VNxU-90">
          <mxGeometry y="30" width="140" height="30" as="geometry" />
        </mxCell>
        <mxCell id="ZZKAg6aDGRZksHE4VNxU-92" value="episodes" style="text;strokeColor=none;fillColor=none;align=left;verticalAlign=middle;spacingLeft=4;spacingRight=4;overflow=hidden;points=[[0,0.5],[1,0.5]];portConstraint=eastwest;rotatable=0;whiteSpace=wrap;html=1;" vertex="1" parent="ZZKAg6aDGRZksHE4VNxU-90">
          <mxGeometry y="60" width="140" height="30" as="geometry" />
        </mxCell>
        <mxCell id="ZZKAg6aDGRZksHE4VNxU-93" value="relation_types" style="text;strokeColor=none;fillColor=none;align=left;verticalAlign=middle;spacingLeft=4;spacingRight=4;overflow=hidden;points=[[0,0.5],[1,0.5]];portConstraint=eastwest;rotatable=0;whiteSpace=wrap;html=1;" vertex="1" parent="ZZKAg6aDGRZksHE4VNxU-90">
          <mxGeometry y="90" width="140" height="30" as="geometry" />
        </mxCell>
        <mxCell id="ZZKAg6aDGRZksHE4VNxU-94" value="residence" style="text;strokeColor=none;fillColor=none;align=left;verticalAlign=middle;spacingLeft=4;spacingRight=4;overflow=hidden;points=[[0,0.5],[1,0.5]];portConstraint=eastwest;rotatable=0;whiteSpace=wrap;html=1;" vertex="1" parent="ZZKAg6aDGRZksHE4VNxU-90">
          <mxGeometry y="120" width="140" height="30" as="geometry" />
        </mxCell>
        <mxCell id="ZZKAg6aDGRZksHE4VNxU-136" style="edgeStyle=orthogonalEdgeStyle;rounded=0;orthogonalLoop=1;jettySize=auto;html=1;exitX=1;exitY=0.5;exitDx=0;exitDy=0;" edge="1" parent="ZZKAg6aDGRZksHE4VNxU-78" source="ZZKAg6aDGRZksHE4VNxU-95">
          <mxGeometry relative="1" as="geometry">
            <mxPoint x="350" y="115" as="targetPoint" />
          </mxGeometry>
        </mxCell>
        <mxCell id="ZZKAg6aDGRZksHE4VNxU-95" value="Aggregate into associative array&lt;i&gt;&amp;nbsp;&lt;/i&gt;&lt;div&gt;&lt;i&gt;key =&amp;gt; array&lt;/i&gt;&lt;/div&gt;" style="shape=process;whiteSpace=wrap;html=1;backgroundOutline=1;" vertex="1" parent="ZZKAg6aDGRZksHE4VNxU-78">
          <mxGeometry x="200" y="85" width="120" height="60" as="geometry" />
        </mxCell>
        <mxCell id="ZZKAg6aDGRZksHE4VNxU-96" style="edgeStyle=orthogonalEdgeStyle;rounded=0;orthogonalLoop=1;jettySize=auto;html=1;exitX=1;exitY=0.5;exitDx=0;exitDy=0;entryX=0;entryY=0.5;entryDx=0;entryDy=0;" edge="1" parent="ZZKAg6aDGRZksHE4VNxU-78" source="ZZKAg6aDGRZksHE4VNxU-92" target="ZZKAg6aDGRZksHE4VNxU-95">
          <mxGeometry relative="1" as="geometry" />
        </mxCell>
        <mxCell id="ZZKAg6aDGRZksHE4VNxU-135" value="return as &lt;i&gt;base_data&lt;/i&gt;" style="rounded=1;whiteSpace=wrap;html=1;" vertex="1" parent="ZZKAg6aDGRZksHE4VNxU-78">
          <mxGeometry x="355" y="85" width="105" height="60" as="geometry" />
        </mxCell>
        <mxCell id="ZZKAg6aDGRZksHE4VNxU-79" value="print as JSON encoded string" style="shape=process;whiteSpace=wrap;html=1;backgroundOutline=1;" vertex="1" parent="ZZKAg6aDGRZksHE4VNxU-4">
          <mxGeometry x="342.5" y="950" width="120" height="50" as="geometry" />
        </mxCell>
        <mxCell id="ZZKAg6aDGRZksHE4VNxU-98" style="edgeStyle=orthogonalEdgeStyle;rounded=0;orthogonalLoop=1;jettySize=auto;html=1;exitX=1;exitY=0.5;exitDx=0;exitDy=0;" edge="1" parent="ZZKAg6aDGRZksHE4VNxU-4" source="ZZKAg6aDGRZksHE4VNxU-80">
          <mxGeometry relative="1" as="geometry">
            <mxPoint x="775" y="420" as="targetPoint" />
          </mxGeometry>
        </mxCell>
        <mxCell id="ZZKAg6aDGRZksHE4VNxU-80" value="Character List" style="swimlane;whiteSpace=wrap;html=1;" vertex="1" parent="ZZKAg6aDGRZksHE4VNxU-4">
          <mxGeometry x="245" y="320" width="475" height="220" as="geometry" />
        </mxCell>
        <mxCell id="ZZKAg6aDGRZksHE4VNxU-99" value="Query from &lt;i&gt;characters&lt;/i&gt;" style="swimlane;fontStyle=0;childLayout=stackLayout;horizontal=1;startSize=30;horizontalStack=0;resizeParent=1;resizeParentMax=0;resizeLast=0;collapsible=1;marginBottom=0;whiteSpace=wrap;html=1;" vertex="1" parent="ZZKAg6aDGRZksHE4VNxU-80">
          <mxGeometry x="15" y="30" width="140" height="150" as="geometry" />
        </mxCell>
        <mxCell id="ZZKAg6aDGRZksHE4VNxU-100" value="id" style="text;strokeColor=none;fillColor=none;align=left;verticalAlign=middle;spacingLeft=4;spacingRight=4;overflow=hidden;points=[[0,0.5],[1,0.5]];portConstraint=eastwest;rotatable=0;whiteSpace=wrap;html=1;" vertex="1" parent="ZZKAg6aDGRZksHE4VNxU-99">
          <mxGeometry y="30" width="140" height="30" as="geometry" />
        </mxCell>
        <mxCell id="ZZKAg6aDGRZksHE4VNxU-101" value="first_name" style="text;strokeColor=none;fillColor=none;align=left;verticalAlign=middle;spacingLeft=4;spacingRight=4;overflow=hidden;points=[[0,0.5],[1,0.5]];portConstraint=eastwest;rotatable=0;whiteSpace=wrap;html=1;" vertex="1" parent="ZZKAg6aDGRZksHE4VNxU-99">
          <mxGeometry y="60" width="140" height="30" as="geometry" />
        </mxCell>
        <mxCell id="ZZKAg6aDGRZksHE4VNxU-102" value="last_name" style="text;strokeColor=none;fillColor=none;align=left;verticalAlign=middle;spacingLeft=4;spacingRight=4;overflow=hidden;points=[[0,0.5],[1,0.5]];portConstraint=eastwest;rotatable=0;whiteSpace=wrap;html=1;" vertex="1" parent="ZZKAg6aDGRZksHE4VNxU-99">
          <mxGeometry y="90" width="140" height="30" as="geometry" />
        </mxCell>
        <mxCell id="ZZKAg6aDGRZksHE4VNxU-103" value="sex" style="text;strokeColor=none;fillColor=none;align=left;verticalAlign=middle;spacingLeft=4;spacingRight=4;overflow=hidden;points=[[0,0.5],[1,0.5]];portConstraint=eastwest;rotatable=0;whiteSpace=wrap;html=1;" vertex="1" parent="ZZKAg6aDGRZksHE4VNxU-99">
          <mxGeometry y="120" width="140" height="30" as="geometry" />
        </mxCell>
        <mxCell id="ZZKAg6aDGRZksHE4VNxU-112" style="edgeStyle=orthogonalEdgeStyle;rounded=0;orthogonalLoop=1;jettySize=auto;html=1;exitX=1;exitY=0.5;exitDx=0;exitDy=0;entryX=0;entryY=0.5;entryDx=0;entryDy=0;" edge="1" parent="ZZKAg6aDGRZksHE4VNxU-80" source="ZZKAg6aDGRZksHE4VNxU-109" target="ZZKAg6aDGRZksHE4VNxU-110">
          <mxGeometry relative="1" as="geometry" />
        </mxCell>
        <mxCell id="ZZKAg6aDGRZksHE4VNxU-109" value="Count how many episodes in char_to_ep for each character" style="shape=process;whiteSpace=wrap;html=1;backgroundOutline=1;" vertex="1" parent="ZZKAg6aDGRZksHE4VNxU-80">
          <mxGeometry x="190" y="100" width="120" height="90" as="geometry" />
        </mxCell>
        <mxCell id="ZZKAg6aDGRZksHE4VNxU-139" style="edgeStyle=orthogonalEdgeStyle;rounded=0;orthogonalLoop=1;jettySize=auto;html=1;exitX=0.5;exitY=1;exitDx=0;exitDy=0;entryX=0.5;entryY=0;entryDx=0;entryDy=0;" edge="1" parent="ZZKAg6aDGRZksHE4VNxU-80" source="ZZKAg6aDGRZksHE4VNxU-110" target="ZZKAg6aDGRZksHE4VNxU-137">
          <mxGeometry relative="1" as="geometry" />
        </mxCell>
        <mxCell id="ZZKAg6aDGRZksHE4VNxU-110" value="Aggregate into associative array id =&amp;gt; data" style="shape=process;whiteSpace=wrap;html=1;backgroundOutline=1;" vertex="1" parent="ZZKAg6aDGRZksHE4VNxU-80">
          <mxGeometry x="340" y="40" width="120" height="60" as="geometry" />
        </mxCell>
        <mxCell id="ZZKAg6aDGRZksHE4VNxU-113" style="edgeStyle=orthogonalEdgeStyle;rounded=0;orthogonalLoop=1;jettySize=auto;html=1;exitX=1;exitY=0.5;exitDx=0;exitDy=0;entryX=0;entryY=0.5;entryDx=0;entryDy=0;" edge="1" parent="ZZKAg6aDGRZksHE4VNxU-80" source="ZZKAg6aDGRZksHE4VNxU-101" target="ZZKAg6aDGRZksHE4VNxU-109">
          <mxGeometry relative="1" as="geometry" />
        </mxCell>
        <mxCell id="ZZKAg6aDGRZksHE4VNxU-137" value="return as &lt;br&gt;&lt;i&gt;char_list&lt;/i&gt;" style="rounded=1;whiteSpace=wrap;html=1;" vertex="1" parent="ZZKAg6aDGRZksHE4VNxU-80">
          <mxGeometry x="355" y="130" width="105" height="60" as="geometry" />
        </mxCell>
        <mxCell id="ZZKAg6aDGRZksHE4VNxU-116" style="edgeStyle=orthogonalEdgeStyle;rounded=0;orthogonalLoop=1;jettySize=auto;html=1;exitX=1;exitY=0.5;exitDx=0;exitDy=0;" edge="1" parent="ZZKAg6aDGRZksHE4VNxU-4" source="ZZKAg6aDGRZksHE4VNxU-81">
          <mxGeometry relative="1" as="geometry">
            <mxPoint x="775" y="745" as="targetPoint" />
          </mxGeometry>
        </mxCell>
        <mxCell id="ZZKAg6aDGRZksHE4VNxU-81" value="Individual Character Data" style="swimlane;whiteSpace=wrap;html=1;" vertex="1" parent="ZZKAg6aDGRZksHE4VNxU-4">
          <mxGeometry x="15" y="570" width="715" height="350" as="geometry" />
        </mxCell>
        <mxCell id="ZZKAg6aDGRZksHE4VNxU-119" style="edgeStyle=orthogonalEdgeStyle;rounded=0;orthogonalLoop=1;jettySize=auto;html=1;exitX=1;exitY=0.5;exitDx=0;exitDy=0;entryX=0;entryY=0.5;entryDx=0;entryDy=0;" edge="1" parent="ZZKAg6aDGRZksHE4VNxU-81" source="ZZKAg6aDGRZksHE4VNxU-115" target="ZZKAg6aDGRZksHE4VNxU-118">
          <mxGeometry relative="1" as="geometry" />
        </mxCell>
        <mxCell id="ZZKAg6aDGRZksHE4VNxU-131" value="&amp;gt; 0" style="edgeLabel;html=1;align=center;verticalAlign=middle;resizable=0;points=[];" vertex="1" connectable="0" parent="ZZKAg6aDGRZksHE4VNxU-119">
          <mxGeometry x="-0.0333" relative="1" as="geometry">
            <mxPoint as="offset" />
          </mxGeometry>
        </mxCell>
        <mxCell id="ZZKAg6aDGRZksHE4VNxU-126" style="edgeStyle=orthogonalEdgeStyle;rounded=0;orthogonalLoop=1;jettySize=auto;html=1;exitX=0.5;exitY=1;exitDx=0;exitDy=0;entryX=0.5;entryY=0;entryDx=0;entryDy=0;" edge="1" parent="ZZKAg6aDGRZksHE4VNxU-81" source="ZZKAg6aDGRZksHE4VNxU-115" target="ZZKAg6aDGRZksHE4VNxU-117">
          <mxGeometry relative="1" as="geometry" />
        </mxCell>
        <mxCell id="ZZKAg6aDGRZksHE4VNxU-127" value="Empty, 0 or undefined" style="edgeLabel;html=1;align=center;verticalAlign=middle;resizable=0;points=[];" vertex="1" connectable="0" parent="ZZKAg6aDGRZksHE4VNxU-126">
          <mxGeometry x="-0.3857" y="-2" relative="1" as="geometry">
            <mxPoint as="offset" />
          </mxGeometry>
        </mxCell>
        <mxCell id="ZZKAg6aDGRZksHE4VNxU-115" value="get &lt;i&gt;id&lt;/i&gt;" style="rhombus;whiteSpace=wrap;html=1;" vertex="1" parent="ZZKAg6aDGRZksHE4VNxU-81">
          <mxGeometry x="40" y="40" width="80" height="80" as="geometry" />
        </mxCell>
        <mxCell id="ZZKAg6aDGRZksHE4VNxU-117" value="Array containing &lt;br&gt;error message" style="rounded=1;whiteSpace=wrap;html=1;" vertex="1" parent="ZZKAg6aDGRZksHE4VNxU-81">
          <mxGeometry x="20" y="250" width="120" height="60" as="geometry" />
        </mxCell>
        <mxCell id="ZZKAg6aDGRZksHE4VNxU-132" style="edgeStyle=orthogonalEdgeStyle;rounded=0;orthogonalLoop=1;jettySize=auto;html=1;exitX=1;exitY=0.5;exitDx=0;exitDy=0;entryX=0;entryY=0.5;entryDx=0;entryDy=0;" edge="1" parent="ZZKAg6aDGRZksHE4VNxU-81" source="ZZKAg6aDGRZksHE4VNxU-118" target="ZZKAg6aDGRZksHE4VNxU-122">
          <mxGeometry relative="1" as="geometry" />
        </mxCell>
        <mxCell id="ZZKAg6aDGRZksHE4VNxU-118" value="query all columns from &lt;i&gt;characters &lt;/i&gt;with &lt;i&gt;id&lt;/i&gt;" style="shape=process;whiteSpace=wrap;html=1;backgroundOutline=1;" vertex="1" parent="ZZKAg6aDGRZksHE4VNxU-81">
          <mxGeometry x="170" y="50" width="120" height="60" as="geometry" />
        </mxCell>
        <mxCell id="ZZKAg6aDGRZksHE4VNxU-140" style="edgeStyle=orthogonalEdgeStyle;rounded=0;orthogonalLoop=1;jettySize=auto;html=1;exitX=0.5;exitY=1;exitDx=0;exitDy=0;entryX=0.5;entryY=0;entryDx=0;entryDy=0;" edge="1" parent="ZZKAg6aDGRZksHE4VNxU-81" source="ZZKAg6aDGRZksHE4VNxU-121" target="ZZKAg6aDGRZksHE4VNxU-123">
          <mxGeometry relative="1" as="geometry" />
        </mxCell>
        <mxCell id="ZZKAg6aDGRZksHE4VNxU-121" value="query &lt;i&gt;episodes&lt;/i&gt;&amp;nbsp;related to &lt;i&gt;character&lt;/i&gt;&amp;nbsp;in &lt;i&gt;char_to_eps&lt;/i&gt;" style="shape=process;whiteSpace=wrap;html=1;backgroundOutline=1;" vertex="1" parent="ZZKAg6aDGRZksHE4VNxU-81">
          <mxGeometry x="510" y="50" width="120" height="60" as="geometry" />
        </mxCell>
        <mxCell id="ZZKAg6aDGRZksHE4VNxU-133" style="edgeStyle=orthogonalEdgeStyle;rounded=0;orthogonalLoop=1;jettySize=auto;html=1;exitX=1;exitY=0.5;exitDx=0;exitDy=0;entryX=0;entryY=0.5;entryDx=0;entryDy=0;" edge="1" parent="ZZKAg6aDGRZksHE4VNxU-81" source="ZZKAg6aDGRZksHE4VNxU-122" target="ZZKAg6aDGRZksHE4VNxU-121">
          <mxGeometry relative="1" as="geometry" />
        </mxCell>
        <mxCell id="ZZKAg6aDGRZksHE4VNxU-122" value="Aggregate into associative Array" style="shape=process;whiteSpace=wrap;html=1;backgroundOutline=1;" vertex="1" parent="ZZKAg6aDGRZksHE4VNxU-81">
          <mxGeometry x="325" y="50" width="120" height="60" as="geometry" />
        </mxCell>
        <mxCell id="ZZKAg6aDGRZksHE4VNxU-142" style="edgeStyle=orthogonalEdgeStyle;rounded=0;orthogonalLoop=1;jettySize=auto;html=1;exitX=1;exitY=0.5;exitDx=0;exitDy=0;entryX=0;entryY=0.5;entryDx=0;entryDy=0;" edge="1" parent="ZZKAg6aDGRZksHE4VNxU-81" source="ZZKAg6aDGRZksHE4VNxU-123" target="ZZKAg6aDGRZksHE4VNxU-124">
          <mxGeometry relative="1" as="geometry" />
        </mxCell>
        <mxCell id="ZZKAg6aDGRZksHE4VNxU-123" value="aggregate into characters as subarray &lt;i&gt;episodes&lt;/i&gt;" style="shape=process;whiteSpace=wrap;html=1;backgroundOutline=1;" vertex="1" parent="ZZKAg6aDGRZksHE4VNxU-81">
          <mxGeometry x="170" y="160" width="120" height="60" as="geometry" />
        </mxCell>
        <mxCell id="ZZKAg6aDGRZksHE4VNxU-143" style="edgeStyle=orthogonalEdgeStyle;rounded=0;orthogonalLoop=1;jettySize=auto;html=1;exitX=1;exitY=0.5;exitDx=0;exitDy=0;" edge="1" parent="ZZKAg6aDGRZksHE4VNxU-81" source="ZZKAg6aDGRZksHE4VNxU-124" target="ZZKAg6aDGRZksHE4VNxU-125">
          <mxGeometry relative="1" as="geometry" />
        </mxCell>
        <mxCell id="ZZKAg6aDGRZksHE4VNxU-124" value="query &lt;i&gt;other_character&amp;nbsp;&lt;/i&gt;related to main_&lt;i&gt;character&lt;/i&gt;&amp;nbsp;in &lt;i&gt;reelationships&lt;/i&gt;" style="shape=process;whiteSpace=wrap;html=1;backgroundOutline=1;" vertex="1" parent="ZZKAg6aDGRZksHE4VNxU-81">
          <mxGeometry x="325" y="155" width="180" height="70" as="geometry" />
        </mxCell>
        <mxCell id="ZZKAg6aDGRZksHE4VNxU-147" style="edgeStyle=orthogonalEdgeStyle;rounded=0;orthogonalLoop=1;jettySize=auto;html=1;exitX=0.5;exitY=1;exitDx=0;exitDy=0;entryX=0.5;entryY=0;entryDx=0;entryDy=0;" edge="1" parent="ZZKAg6aDGRZksHE4VNxU-81" source="ZZKAg6aDGRZksHE4VNxU-125" target="ZZKAg6aDGRZksHE4VNxU-141">
          <mxGeometry relative="1" as="geometry" />
        </mxCell>
        <mxCell id="ZZKAg6aDGRZksHE4VNxU-125" value="aggregate into &lt;i&gt;characters &lt;/i&gt;as subarray &lt;i&gt;relatiohships&lt;/i&gt;" style="shape=process;whiteSpace=wrap;html=1;backgroundOutline=1;" vertex="1" parent="ZZKAg6aDGRZksHE4VNxU-81">
          <mxGeometry x="540" y="160" width="120" height="60" as="geometry" />
        </mxCell>
        <mxCell id="ZZKAg6aDGRZksHE4VNxU-141" value="return as &lt;br&gt;&lt;i&gt;character&lt;/i&gt;" style="rounded=1;whiteSpace=wrap;html=1;" vertex="1" parent="ZZKAg6aDGRZksHE4VNxU-81">
          <mxGeometry x="540" y="270" width="120" height="60" as="geometry" />
        </mxCell>
        <mxCell id="ZZKAg6aDGRZksHE4VNxU-82" style="edgeStyle=orthogonalEdgeStyle;rounded=0;orthogonalLoop=1;jettySize=auto;html=1;exitX=1;exitY=0.5;exitDx=0;exitDy=0;entryX=0;entryY=0.25;entryDx=0;entryDy=0;" edge="1" parent="ZZKAg6aDGRZksHE4VNxU-4" source="ZZKAg6aDGRZksHE4VNxU-75" target="ZZKAg6aDGRZksHE4VNxU-78">
          <mxGeometry relative="1" as="geometry" />
        </mxCell>
        <mxCell id="ZZKAg6aDGRZksHE4VNxU-83" style="edgeStyle=orthogonalEdgeStyle;rounded=0;orthogonalLoop=1;jettySize=auto;html=1;exitX=1;exitY=0.5;exitDx=0;exitDy=0;entryX=0;entryY=0.5;entryDx=0;entryDy=0;" edge="1" parent="ZZKAg6aDGRZksHE4VNxU-4" source="ZZKAg6aDGRZksHE4VNxU-77" target="ZZKAg6aDGRZksHE4VNxU-80">
          <mxGeometry relative="1" as="geometry" />
        </mxCell>
        <mxCell id="ZZKAg6aDGRZksHE4VNxU-85" style="edgeStyle=orthogonalEdgeStyle;rounded=0;orthogonalLoop=1;jettySize=auto;html=1;exitX=1;exitY=0.5;exitDx=0;exitDy=0;entryX=0.098;entryY=0;entryDx=0;entryDy=0;entryPerimeter=0;" edge="1" parent="ZZKAg6aDGRZksHE4VNxU-4" source="ZZKAg6aDGRZksHE4VNxU-76" target="ZZKAg6aDGRZksHE4VNxU-81">
          <mxGeometry relative="1" as="geometry" />
        </mxCell>
        <mxCell id="ZZKAg6aDGRZksHE4VNxU-5" value="write to DB&lt;br&gt;&lt;i&gt;?action=write&lt;/i&gt; (POST only!)" style="swimlane;whiteSpace=wrap;html=1;startSize=50;" vertex="1" parent="1">
          <mxGeometry x="1725" y="40" width="795" height="1040" as="geometry" />
        </mxCell>
        <mxCell id="ZZKAg6aDGRZksHE4VNxU-33" style="edgeStyle=orthogonalEdgeStyle;rounded=0;orthogonalLoop=1;jettySize=auto;html=1;exitX=0.5;exitY=1;exitDx=0;exitDy=0;entryX=0.5;entryY=0;entryDx=0;entryDy=0;" edge="1" parent="1" source="ZZKAg6aDGRZksHE4VNxU-7" target="ZZKAg6aDGRZksHE4VNxU-32">
          <mxGeometry relative="1" as="geometry" />
        </mxCell>
        <mxCell id="ZZKAg6aDGRZksHE4VNxU-7" value="include settings.php" style="shape=process;whiteSpace=wrap;html=1;backgroundOutline=1;" vertex="1" parent="1">
          <mxGeometry x="40" y="120" width="120" height="60" as="geometry" />
        </mxCell>
        <mxCell id="ZZKAg6aDGRZksHE4VNxU-8" value="check DB connection on load" style="swimlane;whiteSpace=wrap;html=1;fillColor=#ffe6cc;strokeColor=#d79b00;" vertex="1" parent="1">
          <mxGeometry x="200" y="40" width="600" height="360" as="geometry" />
        </mxCell>
        <mxCell id="ZZKAg6aDGRZksHE4VNxU-12" style="edgeStyle=orthogonalEdgeStyle;rounded=0;orthogonalLoop=1;jettySize=auto;html=1;exitX=0.5;exitY=1;exitDx=0;exitDy=0;entryX=0.5;entryY=0;entryDx=0;entryDy=0;" edge="1" parent="ZZKAg6aDGRZksHE4VNxU-8" source="ZZKAg6aDGRZksHE4VNxU-10" target="ZZKAg6aDGRZksHE4VNxU-11">
          <mxGeometry relative="1" as="geometry" />
        </mxCell>
        <mxCell id="ZZKAg6aDGRZksHE4VNxU-13" value="No&amp;nbsp;" style="edgeLabel;html=1;align=center;verticalAlign=middle;resizable=0;points=[];" vertex="1" connectable="0" parent="ZZKAg6aDGRZksHE4VNxU-12">
          <mxGeometry x="-0.6526" relative="1" as="geometry">
            <mxPoint as="offset" />
          </mxGeometry>
        </mxCell>
        <mxCell id="ZZKAg6aDGRZksHE4VNxU-26" style="edgeStyle=orthogonalEdgeStyle;rounded=0;orthogonalLoop=1;jettySize=auto;html=1;exitX=1;exitY=0.5;exitDx=0;exitDy=0;entryX=0;entryY=0.5;entryDx=0;entryDy=0;" edge="1" parent="ZZKAg6aDGRZksHE4VNxU-8" source="ZZKAg6aDGRZksHE4VNxU-10" target="ZZKAg6aDGRZksHE4VNxU-16">
          <mxGeometry relative="1" as="geometry" />
        </mxCell>
        <mxCell id="ZZKAg6aDGRZksHE4VNxU-27" value="Yes" style="edgeLabel;html=1;align=center;verticalAlign=middle;resizable=0;points=[];" vertex="1" connectable="0" parent="ZZKAg6aDGRZksHE4VNxU-26">
          <mxGeometry x="-0.0857" y="-3" relative="1" as="geometry">
            <mxPoint as="offset" />
          </mxGeometry>
        </mxCell>
        <mxCell id="ZZKAg6aDGRZksHE4VNxU-10" value="Are DB&lt;br&gt;credentials &lt;br&gt;valid?" style="rhombus;whiteSpace=wrap;html=1;" vertex="1" parent="ZZKAg6aDGRZksHE4VNxU-8">
          <mxGeometry x="20" y="40" width="120" height="120" as="geometry" />
        </mxCell>
        <mxCell id="ZZKAg6aDGRZksHE4VNxU-11" value="FAIL with message" style="rounded=1;whiteSpace=wrap;html=1;" vertex="1" parent="ZZKAg6aDGRZksHE4VNxU-8">
          <mxGeometry x="20" y="280" width="120" height="60" as="geometry" />
        </mxCell>
        <mxCell id="ZZKAg6aDGRZksHE4VNxU-21" style="edgeStyle=orthogonalEdgeStyle;rounded=0;orthogonalLoop=1;jettySize=auto;html=1;exitX=0.5;exitY=1;exitDx=0;exitDy=0;entryX=1;entryY=0.5;entryDx=0;entryDy=0;" edge="1" parent="ZZKAg6aDGRZksHE4VNxU-8" source="ZZKAg6aDGRZksHE4VNxU-16" target="ZZKAg6aDGRZksHE4VNxU-11">
          <mxGeometry relative="1" as="geometry" />
        </mxCell>
        <mxCell id="ZZKAg6aDGRZksHE4VNxU-29" value="No" style="edgeLabel;html=1;align=center;verticalAlign=middle;resizable=0;points=[];" vertex="1" connectable="0" parent="ZZKAg6aDGRZksHE4VNxU-21">
          <mxGeometry x="-0.5257" y="-2" relative="1" as="geometry">
            <mxPoint as="offset" />
          </mxGeometry>
        </mxCell>
        <mxCell id="ZZKAg6aDGRZksHE4VNxU-22" style="edgeStyle=orthogonalEdgeStyle;rounded=0;orthogonalLoop=1;jettySize=auto;html=1;exitX=1;exitY=0.5;exitDx=0;exitDy=0;entryX=0;entryY=0.5;entryDx=0;entryDy=0;" edge="1" parent="ZZKAg6aDGRZksHE4VNxU-8" source="ZZKAg6aDGRZksHE4VNxU-16" target="ZZKAg6aDGRZksHE4VNxU-17">
          <mxGeometry relative="1" as="geometry" />
        </mxCell>
        <mxCell id="ZZKAg6aDGRZksHE4VNxU-28" value="Yes" style="edgeLabel;html=1;align=center;verticalAlign=middle;resizable=0;points=[];" vertex="1" connectable="0" parent="ZZKAg6aDGRZksHE4VNxU-22">
          <mxGeometry x="-0.3333" y="2" relative="1" as="geometry">
            <mxPoint as="offset" />
          </mxGeometry>
        </mxCell>
        <mxCell id="ZZKAg6aDGRZksHE4VNxU-16" value="Does DB exist?" style="rhombus;whiteSpace=wrap;html=1;" vertex="1" parent="ZZKAg6aDGRZksHE4VNxU-8">
          <mxGeometry x="210" y="40" width="120" height="120" as="geometry" />
        </mxCell>
        <mxCell id="ZZKAg6aDGRZksHE4VNxU-23" style="edgeStyle=orthogonalEdgeStyle;rounded=0;orthogonalLoop=1;jettySize=auto;html=1;exitX=0.5;exitY=1;exitDx=0;exitDy=0;entryX=0.5;entryY=0;entryDx=0;entryDy=0;" edge="1" parent="ZZKAg6aDGRZksHE4VNxU-8" source="ZZKAg6aDGRZksHE4VNxU-17" target="ZZKAg6aDGRZksHE4VNxU-19">
          <mxGeometry relative="1" as="geometry" />
        </mxCell>
        <mxCell id="ZZKAg6aDGRZksHE4VNxU-30" value="No" style="edgeLabel;html=1;align=center;verticalAlign=middle;resizable=0;points=[];" vertex="1" connectable="0" parent="ZZKAg6aDGRZksHE4VNxU-23">
          <mxGeometry x="-0.45" y="2" relative="1" as="geometry">
            <mxPoint as="offset" />
          </mxGeometry>
        </mxCell>
        <mxCell id="ZZKAg6aDGRZksHE4VNxU-44" style="edgeStyle=orthogonalEdgeStyle;rounded=0;orthogonalLoop=1;jettySize=auto;html=1;exitX=1;exitY=0.5;exitDx=0;exitDy=0;entryX=1;entryY=0.5;entryDx=0;entryDy=0;" edge="1" parent="ZZKAg6aDGRZksHE4VNxU-8" source="ZZKAg6aDGRZksHE4VNxU-17" target="ZZKAg6aDGRZksHE4VNxU-20">
          <mxGeometry relative="1" as="geometry">
            <Array as="points">
              <mxPoint x="550" y="100" />
              <mxPoint x="550" y="320" />
            </Array>
          </mxGeometry>
        </mxCell>
        <mxCell id="ZZKAg6aDGRZksHE4VNxU-45" value="No" style="edgeLabel;html=1;align=center;verticalAlign=middle;resizable=0;points=[];" vertex="1" connectable="0" parent="ZZKAg6aDGRZksHE4VNxU-44">
          <mxGeometry x="-0.0067" y="1" relative="1" as="geometry">
            <mxPoint as="offset" />
          </mxGeometry>
        </mxCell>
        <mxCell id="ZZKAg6aDGRZksHE4VNxU-17" value="Do Tables exist?" style="rhombus;whiteSpace=wrap;html=1;" vertex="1" parent="ZZKAg6aDGRZksHE4VNxU-8">
          <mxGeometry x="390" y="40" width="120" height="120" as="geometry" />
        </mxCell>
        <mxCell id="ZZKAg6aDGRZksHE4VNxU-25" style="edgeStyle=orthogonalEdgeStyle;rounded=0;orthogonalLoop=1;jettySize=auto;html=1;exitX=0.5;exitY=1;exitDx=0;exitDy=0;entryX=0.5;entryY=0;entryDx=0;entryDy=0;" edge="1" parent="ZZKAg6aDGRZksHE4VNxU-8" source="ZZKAg6aDGRZksHE4VNxU-19" target="ZZKAg6aDGRZksHE4VNxU-20">
          <mxGeometry relative="1" as="geometry" />
        </mxCell>
        <mxCell id="ZZKAg6aDGRZksHE4VNxU-19" value="Create tables" style="shape=process;whiteSpace=wrap;html=1;backgroundOutline=1;" vertex="1" parent="ZZKAg6aDGRZksHE4VNxU-8">
          <mxGeometry x="390" y="200" width="120" height="60" as="geometry" />
        </mxCell>
        <mxCell id="ZZKAg6aDGRZksHE4VNxU-20" value="Return Connection" style="rounded=1;whiteSpace=wrap;html=1;" vertex="1" parent="ZZKAg6aDGRZksHE4VNxU-8">
          <mxGeometry x="390" y="290" width="120" height="60" as="geometry" />
        </mxCell>
        <mxCell id="ZZKAg6aDGRZksHE4VNxU-59" style="edgeStyle=orthogonalEdgeStyle;rounded=0;orthogonalLoop=1;jettySize=auto;html=1;exitX=0.5;exitY=1;exitDx=0;exitDy=0;entryX=0.5;entryY=0;entryDx=0;entryDy=0;" edge="1" parent="1" source="ZZKAg6aDGRZksHE4VNxU-32" target="ZZKAg6aDGRZksHE4VNxU-37">
          <mxGeometry relative="1" as="geometry" />
        </mxCell>
        <mxCell id="ZZKAg6aDGRZksHE4VNxU-32" value="Include Localization" style="shape=process;whiteSpace=wrap;html=1;backgroundOutline=1;" vertex="1" parent="1">
          <mxGeometry x="40" y="210" width="120" height="60" as="geometry" />
        </mxCell>
        <mxCell id="ZZKAg6aDGRZksHE4VNxU-40" style="edgeStyle=orthogonalEdgeStyle;rounded=0;orthogonalLoop=1;jettySize=auto;html=1;exitX=1;exitY=0.5;exitDx=0;exitDy=0;entryX=0;entryY=0.5;entryDx=0;entryDy=0;" edge="1" parent="1" source="ZZKAg6aDGRZksHE4VNxU-37" target="ZZKAg6aDGRZksHE4VNxU-8">
          <mxGeometry relative="1" as="geometry" />
        </mxCell>
        <mxCell id="ZZKAg6aDGRZksHE4VNxU-41" value="No" style="edgeLabel;html=1;align=center;verticalAlign=middle;resizable=0;points=[];" vertex="1" connectable="0" parent="ZZKAg6aDGRZksHE4VNxU-40">
          <mxGeometry x="-0.16" y="2" relative="1" as="geometry">
            <mxPoint as="offset" />
          </mxGeometry>
        </mxCell>
        <mxCell id="ZZKAg6aDGRZksHE4VNxU-51" style="edgeStyle=orthogonalEdgeStyle;rounded=0;orthogonalLoop=1;jettySize=auto;html=1;exitX=0.5;exitY=1;exitDx=0;exitDy=0;" edge="1" parent="1" source="ZZKAg6aDGRZksHE4VNxU-37" target="ZZKAg6aDGRZksHE4VNxU-43">
          <mxGeometry relative="1" as="geometry" />
        </mxCell>
        <mxCell id="ZZKAg6aDGRZksHE4VNxU-57" value="Yes" style="edgeLabel;html=1;align=center;verticalAlign=middle;resizable=0;points=[];" vertex="1" connectable="0" parent="ZZKAg6aDGRZksHE4VNxU-51">
          <mxGeometry x="-0.568" y="-1" relative="1" as="geometry">
            <mxPoint as="offset" />
          </mxGeometry>
        </mxCell>
        <mxCell id="ZZKAg6aDGRZksHE4VNxU-37" value="check for valid session" style="rhombus;whiteSpace=wrap;html=1;" vertex="1" parent="1">
          <mxGeometry x="40" y="310" width="120" height="120" as="geometry" />
        </mxCell>
        <mxCell id="ZZKAg6aDGRZksHE4VNxU-39" style="edgeStyle=orthogonalEdgeStyle;rounded=0;orthogonalLoop=1;jettySize=auto;html=1;exitX=0.5;exitY=1;exitDx=0;exitDy=0;" edge="1" parent="1" source="ZZKAg6aDGRZksHE4VNxU-38" target="ZZKAg6aDGRZksHE4VNxU-7">
          <mxGeometry relative="1" as="geometry" />
        </mxCell>
        <mxCell id="ZZKAg6aDGRZksHE4VNxU-38" value="Page load request" style="rounded=1;whiteSpace=wrap;html=1;" vertex="1" parent="1">
          <mxGeometry x="40" y="20" width="120" height="60" as="geometry" />
        </mxCell>
        <mxCell id="ZZKAg6aDGRZksHE4VNxU-55" style="edgeStyle=orthogonalEdgeStyle;rounded=0;orthogonalLoop=1;jettySize=auto;html=1;exitX=1;exitY=0.5;exitDx=0;exitDy=0;entryX=0;entryY=0.5;entryDx=0;entryDy=0;" edge="1" parent="1" source="ZZKAg6aDGRZksHE4VNxU-43" target="ZZKAg6aDGRZksHE4VNxU-53">
          <mxGeometry relative="1" as="geometry" />
        </mxCell>
        <mxCell id="ZZKAg6aDGRZksHE4VNxU-56" value="No" style="edgeLabel;html=1;align=center;verticalAlign=middle;resizable=0;points=[];" vertex="1" connectable="0" parent="ZZKAg6aDGRZksHE4VNxU-55">
          <mxGeometry x="-0.4571" y="1" relative="1" as="geometry">
            <mxPoint as="offset" />
          </mxGeometry>
        </mxCell>
        <mxCell id="ZZKAg6aDGRZksHE4VNxU-63" style="edgeStyle=orthogonalEdgeStyle;rounded=0;orthogonalLoop=1;jettySize=auto;html=1;exitX=0.5;exitY=1;exitDx=0;exitDy=0;entryX=0.5;entryY=0;entryDx=0;entryDy=0;" edge="1" parent="1" source="ZZKAg6aDGRZksHE4VNxU-43" target="ZZKAg6aDGRZksHE4VNxU-49">
          <mxGeometry relative="1" as="geometry" />
        </mxCell>
        <mxCell id="ZZKAg6aDGRZksHE4VNxU-64" value="Yes" style="edgeLabel;html=1;align=center;verticalAlign=middle;resizable=0;points=[];" vertex="1" connectable="0" parent="ZZKAg6aDGRZksHE4VNxU-63">
          <mxGeometry x="0.1" y="-1" relative="1" as="geometry">
            <mxPoint as="offset" />
          </mxGeometry>
        </mxCell>
        <mxCell id="ZZKAg6aDGRZksHE4VNxU-43" value="check for &lt;br&gt;action (&lt;i&gt;action&lt;/i&gt;&amp;nbsp;in &lt;br&gt;GET or POST)" style="rhombus;whiteSpace=wrap;html=1;" vertex="1" parent="1">
          <mxGeometry x="40" y="590" width="120" height="110" as="geometry" />
        </mxCell>
        <mxCell id="ZZKAg6aDGRZksHE4VNxU-49" value="Execute action:&lt;div&gt;&lt;i&gt;jsstrings&lt;/i&gt;, f&lt;i&gt;etch&lt;/i&gt;, &lt;i&gt;write&lt;/i&gt;&lt;/div&gt;" style="shape=process;whiteSpace=wrap;html=1;backgroundOutline=1;" vertex="1" parent="1">
          <mxGeometry x="40" y="800" width="120" height="60" as="geometry" />
        </mxCell>
        <mxCell id="ZZKAg6aDGRZksHE4VNxU-53" value="FAIL with message" style="rounded=1;whiteSpace=wrap;html=1;" vertex="1" parent="1">
          <mxGeometry x="230" y="615" width="120" height="60" as="geometry" />
        </mxCell>
        <mxCell id="ZZKAg6aDGRZksHE4VNxU-62" value="" style="endArrow=classic;html=1;rounded=0;exitX=0.5;exitY=1;exitDx=0;exitDy=0;edgeStyle=orthogonalEdgeStyle;" edge="1" parent="1" source="ZZKAg6aDGRZksHE4VNxU-20">
          <mxGeometry width="50" height="50" relative="1" as="geometry">
            <mxPoint x="650" y="750" as="sourcePoint" />
            <mxPoint x="100" y="500" as="targetPoint" />
            <Array as="points">
              <mxPoint x="650" y="500" />
            </Array>
          </mxGeometry>
        </mxCell>
      </root>
    </mxGraphModel>
  </diagram>
  <diagram id="eJOhQATc17LknOK9H8dy" name="JS Character">
    <mxGraphModel dx="1434" dy="827" grid="1" gridSize="10" guides="1" tooltips="1" connect="1" arrows="1" fold="1" page="1" pageScale="1" pageWidth="850" pageHeight="1100" math="0" shadow="0">
      <root>
        <mxCell id="0" />
        <mxCell id="1" parent="0" />
      </root>
    </mxGraphModel>
  </diagram>
  <diagram id="PyCQTI3CiOEuqZT8Lrgy" name="JS List">
    <mxGraphModel dx="1434" dy="827" grid="1" gridSize="10" guides="1" tooltips="1" connect="1" arrows="1" fold="1" page="1" pageScale="1" pageWidth="850" pageHeight="1100" math="0" shadow="0">
      <root>
        <mxCell id="0" />
        <mxCell id="1" parent="0" />
      </root>
    </mxGraphModel>
  </diagram>
  <diagram id="k0f12ds-9TFRo7B_-Qdc" name="Flash modal">
    <mxGraphModel dx="1434" dy="827" grid="1" gridSize="10" guides="1" tooltips="1" connect="1" arrows="1" fold="1" page="1" pageScale="1" pageWidth="850" pageHeight="1100" math="0" shadow="0">
      <root>
        <mxCell id="0" />
        <mxCell id="1" parent="0" />
      </root>
    </mxGraphModel>
  </diagram>
</mxfile>
